<svg preserveAspectRatio="none" width="100%" height="100%" overflow="visible" style="display: block;" viewBox="0 0 151 94" fill="none" xmlns="http://www.w3.org/2000/svg">
<g id="OC Logo">
<path id="Vector" d="M105.377 13.5721C105.334 13.528 105.227 13.5721 105.184 13.484C105.142 13.3959 105.013 13.2858 104.906 13.2197C104.842 13.1756 104.735 13.1536 104.692 13.0876C104.607 12.9995 104.628 12.9995 104.543 12.8453C104.5 12.7572 104.371 12.7572 104.329 12.7132C104.243 12.6251 104.136 12.4929 104.072 12.4269C104.008 12.3608 103.943 12.1846 104.008 11.9644C104.05 11.8322 104.115 11.7442 104.179 11.634C104.2 11.59 104.157 11.546 104.243 11.4358C104.179 11.3257 104.436 11.1495 104.5 11.1055C104.436 10.9954 104.756 10.9513 104.735 10.8192C104.778 10.7972 104.842 10.7091 104.885 10.665C104.885 10.643 104.97 10.5329 104.992 10.5329C104.992 10.4888 105.056 10.4008 105.056 10.3347C104.97 10.1585 105.099 10.0043 104.799 10.0264C104.735 10.0264 104.671 10.0264 104.649 10.0924C104.607 10.0924 104.585 10.1365 104.543 10.1585C104.5 10.1585 104.329 10.2686 104.222 10.4008C104.179 10.4008 103.858 10.5329 103.815 10.643C103.772 10.7311 103.451 10.8412 103.43 10.8412C103.387 10.8853 103.152 10.9073 103.109 10.9293C102.788 10.9293 102.809 10.7972 102.638 10.7311C102.467 10.665 102.553 10.2686 102.424 10.1585C102.274 10.0484 102.36 9.69602 102.253 9.56388C102.146 9.43174 102.253 9.43174 102.21 9.36567C102.168 9.2996 102.146 9.18949 102.168 9.16747C102.168 9.07938 102.189 9.05735 102.189 8.94724C102.189 8.94724 102.189 8.85914 102.168 8.85914C102.146 8.83712 102.189 8.77106 102.168 8.68296C102.125 8.59487 102.103 8.66094 102.082 8.55082L101.975 8.50678C101.954 8.50678 101.911 8.46273 101.889 8.44071C101.825 8.41869 101.782 8.46273 101.74 8.5288C101.697 8.57285 101.654 8.59487 101.633 8.66094C101.633 8.68296 101.633 8.74903 101.633 8.79308C101.611 8.88117 101.568 8.92522 101.526 9.01331C101.526 9.07938 101.526 9.14545 101.504 9.16747C101.504 9.25556 101.44 9.29961 101.44 9.32163C101.483 9.43174 101.354 9.65197 101.397 9.78411C101.419 9.85018 101.461 10.1145 101.44 10.2686C101.397 10.4008 101.483 10.665 101.461 10.7972C101.44 10.9513 101.354 10.8853 101.247 10.9954C101.162 11.1055 101.055 11.0835 100.969 11.1055C100.884 11.1275 100.713 11.0835 100.648 11.1055C100.434 11.1275 100.584 11.1716 100.37 11.1275C100.37 11.1275 100.285 11.1716 100.156 11.0835C100.113 11.0835 100.006 11.0835 99.9851 11.0835L99.9209 11.0614H99.8139C99.8139 11.0614 99.6641 11.0174 99.6427 11.0394C99.6 11.0394 99.5572 11.0394 99.493 11.0394C99.4502 11.0394 99.3004 10.9734 99.2576 10.9513C99.1292 10.9513 98.9367 11.0614 98.9795 11.1495C98.9795 11.2156 98.9795 11.2156 98.9581 11.2817C98.9367 11.3477 99.0009 11.3257 99.0223 11.3698C99.1292 11.4799 99.1078 11.5019 99.279 11.568C99.4288 11.7001 99.5358 11.7442 99.7069 11.7442C99.7497 11.8102 99.8781 11.8322 99.9423 11.8983C99.9851 12.0084 100.156 11.8983 100.242 11.9644C100.263 12.0305 100.349 12.0305 100.413 12.0745C100.477 12.1185 100.734 12.0745 100.969 12.3168C100.991 12.3608 101.055 12.3828 101.098 12.4048C101.098 12.4048 101.247 12.537 101.269 12.581C101.354 12.7572 101.247 12.7792 101.333 12.8894C101.376 12.9554 101.312 13.1977 101.29 13.2417C101.29 13.2858 101.29 13.3739 101.29 13.4179C101.29 13.462 101.333 13.6822 101.247 13.7923C101.205 13.9685 101.162 14.0125 101.162 14.1226C101.162 14.2328 101.055 14.431 101.055 14.5851C101.055 14.7393 101.012 14.8274 100.969 15.0036C100.927 15.0916 101.055 15.1577 101.012 15.2899C100.969 15.422 101.055 15.4881 101.119 15.5101C101.247 15.6202 101.504 15.5982 101.568 15.466C101.654 15.444 101.782 15.1357 101.782 15.0476C101.782 14.9595 101.996 14.8494 101.996 14.7613C102.039 14.5631 102.125 14.4089 102.125 14.3649C102.274 14.3208 102.253 13.9685 102.36 13.9024C102.51 13.8143 102.446 13.484 102.617 13.4179C102.745 13.3739 102.767 13.2197 102.788 13.2417C102.916 13.1977 103.023 13.3078 103.13 13.2858C103.195 13.2858 103.302 13.4179 103.366 13.4179C103.451 13.4179 103.58 13.55 103.729 13.5941C103.901 13.6381 104.05 13.6822 104.093 13.7482C104.136 13.8143 104.286 13.8804 104.414 13.9024C104.649 13.9465 104.735 13.9905 104.842 14.1006C105.163 14.3649 105.484 14.3869 105.527 14.2328C105.548 14.0786 105.762 14.0566 105.719 13.8804C105.655 13.5721 105.591 13.7703 105.42 13.55" fill="var(--fill-0, white)"/>
<path id="Vector_2" d="M95.663 48.016C95.9411 47.5976 96.369 47.8839 96.5402 47.8398C96.7328 47.7958 97.8454 47.5976 98.9152 47.8398C99.6855 47.994 100.691 48.4565 101.697 48.985C102.531 49.4255 103.087 49.5576 103.087 49.5576C103.087 49.5576 103.387 49.3814 103.858 49.6017C104.328 49.8219 104.692 49.954 105.826 50.0421C106.254 50.0862 107.046 49.9981 107.688 49.8219C108.009 49.7338 108.715 49.3814 108.864 49.5356C109.014 49.6898 108.864 49.7118 108.693 49.7338C108.608 49.7558 108.522 49.8439 108.33 49.932C108.18 49.9981 108.03 50.1743 107.944 50.1963C107.795 50.2403 107.581 50.2183 107.41 50.2844C107.217 50.3505 107.067 50.4826 106.939 50.5046C106.768 50.5046 106.639 50.5046 106.404 50.5487C106.276 50.5707 106.147 50.6808 105.912 50.7028C105.484 50.7248 105.334 50.835 105.334 50.835L105.184 50.9451C105.184 50.9451 106.211 51.5177 107.345 53.4997C108.8 55.9223 107.987 59.3579 108.672 59.7763C109.121 60.0626 110.212 60.2608 110.919 60.5691C111.261 60.7233 112.138 61.0756 112.331 61.5381C112.545 62.0447 112.373 62.3089 112.245 62.5071C112.095 62.7053 111.817 62.6393 111.839 62.4631C111.881 62.1988 111.518 62.1548 111.154 62.2429C110.747 62.331 110.341 62.4411 109.678 62.5292C108.822 62.6393 108.522 62.0667 108.501 62.2429C108.479 62.419 108.351 62.7714 108.137 62.9476C107.816 63.2119 107.517 63.2559 106.939 63.4762C106.254 63.7404 105.805 64.0267 105.741 64.1809C105.676 64.313 105.569 64.4231 105.42 64.4231C105.291 64.4231 105.099 64.269 105.163 63.8285C105.227 63.4982 105.27 63.0357 106.062 61.9345C106.425 61.428 106.789 61.1417 106.939 60.6792C107.067 60.3269 107.196 59.9965 107.003 59.2477C106.896 58.8513 106.746 58.2127 105.762 57.3978C104.842 56.627 104.222 56.4728 103.366 55.702C102.189 54.6449 101.868 54.4467 102.018 54.9753C102.125 55.2175 102.018 55.1955 102.06 55.5259C102.06 55.636 102.039 55.7681 102.039 55.8782C102.039 56.0764 102.082 56.2967 102.082 56.4949C102.082 56.6711 101.975 56.8252 101.953 56.9794C101.932 57.1776 101.953 57.3758 101.953 57.4198C101.996 57.596 101.953 57.7722 101.825 57.7722C101.483 57.7722 101.59 56.9133 101.333 56.2306C100.948 55.1955 100.52 54.4467 99.7711 53.6759C99.3003 53.1914 99.3645 52.9051 99.3645 52.9051C99.3645 52.9051 98.744 52.4206 97.4389 51.4076C96.1337 50.3945 95.9411 49.2053 95.7913 49.0511C95.6202 48.8969 95.2778 48.5225 95.5774 48.0821" fill="var(--fill-0, white)"/>
<path id="Vector_3" d="M119.819 41.5192C119.819 41.5192 119.028 42.5984 118.942 42.7085C118.75 42.9507 118.6 42.8406 118.493 42.7085C118.364 42.5763 118.386 42.5103 118.108 42.4442C117.915 42.4001 117.83 42.4442 117.765 42.5763C117.723 42.5763 117.68 42.5763 117.637 42.5763C117.573 42.5763 117.573 42.4662 117.487 42.4222C117.402 42.3781 117.273 42.268 117.166 42.2019C117.102 42.2019 117.016 42.0258 116.952 42.0037C116.888 41.9817 116.738 42.0037 116.674 41.9817C116.589 41.9597 116.503 41.8055 116.417 41.7835C116.31 41.7395 116.203 41.7835 116.096 41.7395C115.989 41.6954 115.968 41.5853 115.882 41.5412C115.733 41.4532 115.497 41.3871 115.305 41.299C114.641 40.9907 113.7 41.0347 113.058 40.7484C112.095 40.308 110.833 40.0437 110.191 40.0877C109.292 40.1978 108.95 39.7794 108.073 40.0877C107.303 40.352 109.036 41.343 109.72 41.7395C111.261 42.9507 112.331 43.6334 114.941 43.4352C115.882 43.3031 117.081 43.259 117.701 42.8406C117.765 42.8406 117.979 42.9287 118.129 43.0388C118.322 43.1709 118.322 43.3912 118.3 43.5013C118.3 43.6114 118.3 43.7876 118.022 44.2721C117.787 44.6465 117.466 45.3732 117.166 46.0119C116.931 46.4964 116.738 46.9589 116.653 47.069C116.503 47.2672 116.332 47.4214 116.246 47.4434C115.947 47.4875 115.947 47.3333 115.882 47.069C115.818 46.7827 115.84 46.4083 115.54 46.4964C115.497 46.4964 115.455 46.5405 115.412 46.5845C115.348 46.4744 115.241 46.3863 115.134 46.2542C115.069 46.1661 114.984 46.0339 114.898 45.9458C114.834 45.9018 114.748 45.9018 114.684 45.8357C114.62 45.7917 114.556 45.6816 114.492 45.6375C114.363 45.5494 114.192 45.5494 114.064 45.4613C113.828 45.2852 113.636 45.0429 113.422 44.8887C111.475 43.6555 110.426 43.5894 108.822 43.6114C108.137 43.5233 106.489 43.3692 107.003 43.8537C107.559 44.4042 107.987 44.3161 108.629 44.7566C109.1 45.0649 110.17 45.4393 111.068 45.6155C111.667 45.7256 112.373 46.1441 112.994 46.2542C113.165 46.2762 113.358 46.3423 113.507 46.3643C113.572 46.3643 113.657 46.3863 113.721 46.3643C113.743 46.3643 113.721 46.3202 113.764 46.3202C113.85 46.3423 113.914 46.4083 114.021 46.4303C114.085 46.4303 114.214 46.4083 114.278 46.4303C114.342 46.4303 114.449 46.5184 114.513 46.5405C114.577 46.5625 114.706 46.5184 114.748 46.5184C114.877 46.5405 115.005 46.5184 115.069 46.5405C115.155 46.5405 115.176 46.4964 115.219 46.5184C115.283 46.5405 115.326 46.5625 115.369 46.5845C115.326 46.6286 115.305 46.6726 115.283 46.7387C115.219 46.8928 115.283 47.025 115.412 47.091C115.561 47.3113 116.096 47.7517 115.668 47.8839C114.834 48.1702 114.278 48.1261 114.278 48.1261C114.107 48.1261 114.064 48.2583 114.042 48.3463C113.764 48.0601 112.994 47.8618 112.395 47.6416C110.854 47.1791 110.576 47.3333 109.335 47.1791C108.864 47.2452 107.581 47.1791 108.03 47.3994C108.501 47.6416 108.779 47.5315 109.292 47.7077C109.677 47.8178 110.298 48.5005 110.94 48.4565C111.368 48.4344 111.924 48.5886 112.352 48.5666C112.459 48.5666 112.609 48.5666 112.716 48.5666C112.78 48.5666 112.801 48.5225 112.887 48.5005C112.951 48.5005 113.015 48.5446 113.08 48.5225C113.122 48.5225 113.208 48.4785 113.251 48.4785C113.293 48.4785 113.465 48.5886 113.507 48.5886C113.55 48.5886 113.85 48.5446 113.893 48.5446C113.935 48.5446 114.021 48.5446 114.085 48.5225V48.5666C114.085 48.6106 114.085 48.6767 114.107 48.6987C114.149 48.7648 114.299 48.8309 114.962 48.6547C116.225 48.3463 116.738 47.7077 116.909 47.5535C117.081 47.3553 117.402 46.7387 117.658 46.1661L117.723 46.0119C118.514 44.3602 118.75 43.8977 118.814 43.7876C118.878 43.6555 119.156 43.3031 119.434 42.9727L120.076 41.9377L119.798 41.5412L119.819 41.5192Z" fill="var(--fill-0, white)"/>
<path id="Vector_4" d="M126.153 36.8504C126.196 37.9515 125.703 38.9866 125.532 40.0657C125.297 40.9026 125.254 41.5413 125.147 42.0698C125.083 42.224 124.976 42.3781 124.89 42.4222C124.462 42.7085 123.457 43.237 122.687 43.8317C122.537 43.6775 122.194 43.4793 121.617 43.3692C120.825 43.215 120.718 43.5013 120.782 43.8317C120.419 43.6335 120.183 43.2811 120.183 43.2811C120.183 43.2811 120.14 43.237 120.119 43.2591C120.098 43.2591 120.119 43.3031 120.119 43.3251C120.162 43.4793 120.226 43.5894 120.333 43.7436C120.483 43.9638 120.633 44.0299 120.761 44.0739C120.761 44.3602 120.953 44.6245 121.531 44.5364C121.702 44.5144 121.852 44.4923 122.002 44.4483C121.895 44.5584 121.809 44.6685 121.724 44.7786C121.724 44.8007 121.702 44.8227 121.681 44.8447C121.274 44.8888 120.547 45.2631 119.734 45.9679C118.792 46.7607 118.857 47.3113 119.263 47.6196C119.049 47.8398 118.964 48.1041 118.835 48.3904C118.728 48.5226 118.728 48.8749 118.578 49.1832C118.493 49.4475 118.45 49.7338 118.3 50.1082C118.215 50.1963 118.151 50.7028 118.193 50.5927C118.193 50.5487 118.3 50.4826 118.322 50.4386C118.322 50.3945 118.471 50.1082 118.493 50.0421C118.493 50.0201 118.664 49.866 118.664 49.8219C118.664 49.7779 118.685 49.6017 118.707 49.5576C118.707 49.5136 118.75 49.4695 118.771 49.4255C118.792 49.3814 118.792 49.3154 118.814 49.2493C118.835 49.2053 118.857 49.1832 118.878 49.1392C118.921 49.0511 118.985 49.0071 119.028 48.919C119.263 48.3464 119.37 48.5446 119.456 48.3243C119.541 48.1261 119.584 47.994 119.605 47.8839C119.991 48.3243 120.675 48.3464 121.21 47.2672C121.531 46.6286 121.809 46.034 121.959 45.6155C122.109 45.4614 122.28 45.3292 122.43 45.1751C122.344 45.3292 122.28 45.4834 122.194 45.7036C121.916 46.4524 122.173 46.6286 122.494 46.6286C122.473 46.7167 122.344 47.1571 121.938 47.5535C121.874 47.6857 122.323 47.4434 122.451 47.2672C122.58 47.0911 122.644 47.003 122.687 46.6726C122.943 46.7607 123.179 46.5845 123.286 45.9459C123.393 45.2411 123.2 44.6685 123.029 44.6025C123.628 44.0519 124.227 43.5013 124.783 43.0829L124.313 44.7786L123.714 46.1881C123.371 47.2893 123.179 48.0821 123.093 48.6106C122.622 48.7208 121.638 49.1612 121.189 49.5797C120.526 50.2183 119.648 50.7028 119.327 51.9581C119.22 52.5087 119.242 52.9051 119.349 53.3896C119.349 53.4777 119.349 53.6099 119.434 53.5438C119.52 53.4777 119.52 53.0813 119.563 52.9932C119.584 52.9492 119.819 52.6629 119.841 52.6188C119.862 52.5748 119.841 52.3546 119.884 52.3105C119.905 52.2665 120.012 52.2004 120.033 52.1563C120.076 52.0903 120.076 52.0242 120.119 51.9581C120.162 51.8921 120.226 51.87 120.269 51.826C120.354 51.7379 120.44 51.5617 120.504 51.4736C120.782 51.0552 120.547 51.4296 120.825 51.0111C121.253 50.3945 121.681 50.0642 122.045 49.7338C122.43 49.3594 122.729 49.2713 123.05 48.985C123.05 49.0291 123.05 49.0731 123.05 49.0952C122.58 49.5576 121.531 50.7469 121.06 51.826C120.911 52.2665 120.889 52.9492 121.36 53.0373C121.253 53.2575 121.125 53.4777 120.932 53.764C120.504 54.4027 120.419 54.0063 119.327 55.0634C118.942 55.4378 119.456 55.5479 118.429 56.5389C118.258 56.6931 118.215 56.8913 118.065 57.0234C117.979 57.1115 118.001 57.1776 117.894 57.2657C117.787 57.3538 117.658 57.3978 117.573 57.4859C117.509 57.552 117.444 57.6841 117.38 57.7502C117.316 57.8162 116.931 57.9484 116.867 57.9924C116.824 58.0365 116.61 58.521 116.567 58.565C116.46 58.6751 115.99 59.2037 115.904 59.2698C114.962 60.0846 116.268 59.5561 116.589 59.1376C117.701 57.9924 117.808 58.2567 118.279 57.8823C118.835 57.2877 119.563 57.0895 119.734 56.7151C120.269 56.1645 120.804 55.7241 121.103 54.9092C121.125 54.9092 121.745 54.2706 122.002 53.5218C122.045 53.3896 122.087 53.2575 122.13 53.1254C122.537 53.1254 122.943 52.8831 123.114 52.2444C123.221 51.804 123.393 50.7248 123.414 50.4606C123.435 50.0201 123.435 49.6017 123.414 49.3154C123.628 49.0071 123.906 48.3464 124.077 47.4875C124.163 47.003 124.291 46.3643 124.484 45.7477C124.676 45.131 124.933 44.5584 125.083 43.8757C125.211 43.3031 125.532 42.9728 125.703 42.224C125.96 41.0568 126.26 39.7354 126.559 37.9735L126.174 36.7843L126.153 36.8504Z" fill="var(--fill-0, white)"/>
<path id="Vector_5" d="M116.246 55.2175C116.653 55.8121 117.316 54.8651 117.744 55.0854C117.872 54.9753 117.68 54.7771 117.658 54.733C117.637 54.6229 117.808 54.5348 117.808 54.5348C117.808 54.5348 117.915 54.4908 117.851 54.4027C116.995 54.0943 117.166 52.795 117.081 52.7289C117.017 52.6629 116.867 52.6188 116.91 52.4646C116.931 52.3105 116.91 52.1563 116.824 52.0682C116.31 51.804 116.31 51.3195 116.075 51.2974C115.647 51.2093 115.198 50.901 115.198 50.901C115.198 50.901 114.385 50.879 114.235 51.0111C113.786 51.3635 113.272 51.5177 113.187 51.5837C113.187 51.5837 112.866 51.1433 112.459 51.0552C111.881 50.9451 111.625 51.3194 111.518 51.4736C111.09 50.6367 110.426 51.2534 110.384 51.2754C110.384 51.3635 110.384 51.4075 110.298 51.6057C110.298 51.4296 110.298 51.2974 110.234 51.2534H110.212C109.956 51.0111 109.656 51.0772 109.528 51.2534C109.571 51.2754 109.485 51.4075 109.399 51.5837C109.421 51.4075 109.464 51.3195 109.442 51.2754C109.442 51.2754 109.335 51.1433 109.164 51.1212C108.993 51.0992 108.865 51.2534 108.865 51.2534L108.822 51.2974C108.822 51.3635 108.779 51.4956 108.736 51.6057C108.758 51.4516 108.736 51.3195 108.736 51.2974L108.693 51.2534C108.651 51.2534 108.629 51.2093 108.608 51.2093C108.372 51.1433 108.009 51.3855 108.009 51.3855C108.009 51.3855 108.094 51.9141 108.544 52.0682C108.544 52.0682 108.608 52.0903 108.651 51.9801C108.629 52.1123 108.586 52.1343 108.586 52.1343C108.586 52.839 109.078 52.5748 109.078 52.5748C109.078 52.5748 109.121 52.4646 109.185 52.3545C109.185 52.5527 109.121 52.7069 109.121 52.7069C109.078 53.1033 109.72 53.4116 109.977 53.1694C109.977 53.1253 109.977 53.2134 110.041 53.0152C110.041 53.1914 109.977 53.4116 109.977 53.3676C109.699 54.0723 110.576 54.8872 110.961 54.5568C110.961 54.5568 111.197 54.711 111.282 55.1735C111.325 55.4157 111.368 55.5479 111.603 55.658C111.796 55.7461 111.817 55.658 111.946 55.68C112.181 55.7681 112.117 55.8782 112.224 55.9663C112.309 55.9663 112.416 55.9223 112.63 56.0764C112.951 55.9663 113.101 56.1425 113.101 56.0764C113.358 55.8562 113.615 56.0984 113.636 56.0544C113.786 55.8782 114.042 55.8121 114.149 55.8342C114.299 55.8342 114.428 55.4818 114.535 55.4818C114.855 55.3276 114.962 55.1074 114.962 55.1074C114.962 55.1074 115.711 54.6449 116.268 55.3056" fill="var(--fill-0, white)"/>
<path id="Vector_6" d="M102.21 59.446C102.06 59.446 101.975 59.49 101.889 59.2698C101.825 59.0495 101.526 59.0716 101.419 59.0055C101.29 58.9394 101.461 58.7632 101.205 58.7632C100.948 58.7632 100.969 58.5871 100.884 58.543C100.798 58.499 100.712 58.543 100.605 58.565C100.477 58.5871 100.691 58.0145 100.199 57.7942C99.7068 57.574 99.8352 57.4639 99.6854 57.3097C99.1505 56.8032 98.637 57.3978 98.9366 58.0805C99.0008 58.2127 98.9366 58.543 98.9366 58.8954C98.9366 59.1597 99.0008 59.4019 98.8296 59.6662C98.4445 60.1507 98.2947 60.0846 97.8881 60.3269C97.5886 60.5251 97.1821 60.9876 97.1179 61.0096C96.7327 61.1197 96.4332 61.45 96.2192 61.8465C95.8769 62.4851 95.6843 62.3089 95.6201 62.2649C95.4704 62.1768 95.6201 60.6132 96.1336 59.8424C96.2406 59.6882 96.4546 59.1817 96.155 59.0936C96.0267 59.0716 96.3904 58.1466 96.7969 57.7282C96.9681 57.552 97.0751 57.1996 97.2249 57.0895C97.6742 56.649 97.8881 56.7371 97.9309 56.7592C98.4445 57.1115 99.5357 56.3627 98.4231 55.9663C98.2733 55.9223 98.2091 55.5699 97.8881 55.5699C97.61 55.5699 97.5244 55.7461 97.4816 55.68C97.4174 55.614 97.396 55.5038 97.2677 55.4378C97.1393 55.3497 96.8611 55.5479 96.7969 55.2396C96.7541 54.9312 96.4332 54.8872 96.155 54.9312C96.0481 54.9533 96.0053 54.9312 95.9625 54.8211C95.8983 54.667 95.7485 54.667 95.5773 54.667C95.3848 54.667 95.5132 54.2706 95.0638 54.2706C94.2722 54.2265 94.6145 54.8211 94.6145 54.8211C94.6145 54.8211 94.0582 55.0193 93.78 54.8211C93.3521 54.5128 93.2451 54.4027 93.3521 54.2926C93.5019 54.0944 93.3521 54.0063 93.181 53.9182C92.967 53.8962 92.9242 53.9182 92.8814 53.8741C92.7744 53.8081 92.7744 53.698 92.5177 53.5878C92.5177 53.5878 92.2181 53.6539 92.1111 53.5218C91.94 53.4117 91.9828 53.3676 91.8116 53.3236C91.1911 53.2135 91.2125 54.1164 91.7046 54.4247C91.9828 54.6009 92.4749 54.8432 92.753 55.4818C92.9028 55.8122 93.5019 56.0544 93.7587 56.4949C94.101 57.0895 94.315 57.8163 94.1866 58.6972C94.1438 59.0055 94.315 59.3579 94.2722 59.5561C94.1224 60.415 93.8442 60.5691 93.7587 60.9876C93.5875 61.8024 93.7587 61.9786 93.7159 62.4191C93.6731 62.8595 93.4377 63.2559 93.2665 63.3881C93.0954 63.5202 92.6246 63.6083 92.1753 63.8506C91.833 64.0267 91.512 64.3351 91.3623 64.4011C90.8274 64.6434 89.4366 64.7094 89.6078 64.0488C89.7361 63.5863 89.6506 63.1678 89.6934 63.0577C90.0357 62.9036 90.6562 62.7714 90.8702 62.4191C91.0841 62.0226 91.5762 61.9786 91.833 61.7804C92.0683 61.6042 92.0469 60.8114 91.6832 60.5911C91.3195 60.3709 91.2125 60.7894 90.806 61.0757C90.5278 61.2739 89.8003 61.7143 89.5008 61.7804C89.4794 61.5602 89.4366 60.6792 89.3296 60.1727C89.244 59.7543 89.9287 59.4019 89.7789 59.0275C89.351 58.0365 90.0785 57.8823 90.2069 57.8823C90.7632 57.7942 90.9985 57.7942 91.0841 57.552C91.1697 57.3317 91.1269 56.9133 90.6562 56.9353C90.485 56.9353 90.3352 57.1776 90.2711 57.0675C90.2069 56.9353 90.1855 56.8472 89.9929 56.7592C89.8003 56.6711 89.672 56.8472 89.458 56.8252C89.2012 56.7812 89.351 56.627 89.1371 56.5389C88.9445 56.4508 88.5807 56.7371 88.5166 56.5609C88.2384 55.9003 87.6821 56.2086 87.5537 56.0764C87.0616 55.614 86.6123 56.0324 86.6123 56.2746C86.6123 57.0234 87.4039 57.1996 87.9389 58.3008C88.0672 58.5871 88.0886 59.0495 87.9389 59.49C87.7249 60.1066 88.1742 61.0316 88.1314 61.5161C88.0672 62.2429 88.0244 62.8815 88.0244 63.2339C88.0244 63.5643 87.8105 63.5863 87.6179 64.1148C87.1044 65.5463 87.4681 64.9957 86.2913 65.9207H86.2486C86.1416 65.9648 85.5639 65.9648 85.4569 66.4052C85.3499 66.8457 85.5211 67.2861 85.7136 67.5504C86.2486 68.2551 87.0616 68.5855 87.4467 68.1891C87.7249 67.8808 88.0672 68.101 88.5166 67.8147C89.9073 66.8897 90.7204 67.0659 91.6404 66.4272C92.1967 66.185 93.0098 65.8987 93.2879 65.7886C93.8656 65.6564 94.315 65.3701 94.6145 65.194C94.9782 64.9737 95.1494 65.0178 95.4276 65.1059C95.7271 65.194 96.583 64.8856 97.0751 65.1719C97.4602 65.3922 98.3161 65.3481 98.9152 65.3481C99.5143 65.3481 99.664 65.3922 99.8566 65.5904C100.113 65.8546 100.434 65.8987 100.477 66.0969C100.52 66.2951 100.648 67.132 101.205 66.9998C101.461 66.9338 101.29 66.5594 101.312 66.5594C101.483 66.2511 101.397 66.207 101.376 66.0749C101.376 65.9427 101.632 65.9427 101.59 65.6785C101.526 65.3041 101.868 65.26 101.804 64.9517C101.718 64.6214 101.782 64.4011 101.846 64.313C101.975 64.1369 101.654 64.0267 101.825 63.7845C102.189 63.322 101.975 63.1678 101.846 63.1238C101.098 62.8595 100.884 64.2029 99.878 64.1368C99.4715 64.1148 98.8296 63.9607 98.5942 63.6964C98.2733 63.322 97.824 63.3 97.6314 63.2119C97.8881 62.6173 98.8724 62.5512 98.8082 62.1107C98.8082 61.9786 98.7012 61.8685 98.5942 61.7584C98.9794 61.4941 99.2575 61.1197 99.2575 61.1197C99.7496 60.5471 100.285 60.6352 100.648 60.3929C100.991 60.1727 101.44 60.1947 101.633 60.2168C102.21 60.3049 102.617 60.1947 102.531 59.7323C102.51 59.5781 102.339 59.3799 102.189 59.3579" fill="var(--fill-0, white)"/>
<path id="Vector_7" d="M109.506 17.9547C110.897 15.5101 111.56 11.2817 110.298 9.0794C105.741 0.864824 93.2238 5.75393 92.9671 8.55085C92.8173 9.76211 95.0853 9.62997 94.8072 10.8633C94.5504 11.9424 93.4378 12.2287 92.6034 12.4709C88.4953 13.7262 85.9919 7.91218 82.2475 10.0704C81.6057 10.3788 80.5144 10.7091 80.493 11.612C80.4503 12.493 81.5629 12.5811 82.0978 13.0876C82.8894 15.6863 89.886 16.9856 94.4434 14.1447C99.8567 10.7972 93.7802 11.4359 96.7329 8.26455C99.0009 5.81999 107.431 7.51577 108.779 10.4889C110.041 13.3078 108.736 11.2817 106.746 17.1178C106.276 18.5273 106.682 20.3992 106.917 20.5093C107.217 20.6415 108.8 19.2981 109.528 17.9987" fill="var(--fill-0, white)"/>
<path id="Vector_8" d="M85.8634 7.69195C85.7136 7.82409 85.5852 7.95622 85.5852 8.00027C85.7136 8.17645 86.3983 8.705 86.9118 8.9913C87.083 9.10142 87.2969 9.14546 87.4253 9.05737C87.6393 8.88119 88.003 8.37466 88.11 8.04431C88.1314 8.04431 89.03 8.02229 89.8645 7.78004C89.8645 8.02229 89.8431 8.85916 90.2924 8.9913C90.5706 9.07939 91.0199 7.33958 91.0841 7.22946C92.3893 6.45866 93.9084 4.9611 94.4005 3.0451C95.0424 0.446386 94.5717 0.0940181 94.4433 0.0499722C94.4005 0.0279492 93.6944 -0.280373 91.7474 0.952914C90.6562 1.7017 89.6933 2.69273 89.2868 3.17724C88.5379 2.95701 88.0886 2.84689 87.4681 2.69273C87.3183 2.67071 87.19 2.64868 87.1472 2.82487C87.1472 2.91296 87.1472 3.0451 87.2114 3.17724C87.3825 3.6177 87.3825 4.30041 87.3397 4.63075C87.3397 4.78491 87.4253 4.82896 87.5751 4.82896C87.6179 4.82896 87.7035 4.91705 87.8105 5.02717C87.5109 5.31346 86.8476 5.66583 86.5909 5.68785C86.0987 5.55572 85.4782 5.18133 85.1573 5.29144C85.0075 5.33549 84.9219 5.66583 85.1573 5.93011C85.2215 5.97416 85.2643 6.0182 85.3285 6.04022C84.9005 6.12832 84.4726 6.17236 84.0875 6.12831C84.0447 6.08427 84.0447 5.99618 84.0233 5.93011C84.0019 5.59976 84.2801 5.42358 84.4726 5.26942C84.7294 5.07121 84.708 4.82896 84.5582 4.58671C84.4084 4.34445 84.0875 4.12422 83.8521 4.05816C83.681 4.01411 83.4242 3.99208 83.253 3.85995C83.1033 3.74983 82.9749 3.57365 82.8465 3.30937C82.6111 2.82487 82.4614 2.34036 82.0548 1.94395C81.9906 1.87788 81.9051 1.92193 81.8623 1.94395C81.7125 2.16418 82.1832 4.32243 82.6967 5.07121C83.3386 6.12831 84.387 7.1634 85.9276 7.69195" fill="var(--fill-0, white)"/>
<path id="Vector_9" d="M82.5898 23.9449C82.6112 23.9229 82.6326 23.8128 82.44 23.6366C82.2474 23.4604 82.0335 23.2842 82.0335 23.2842C82.0335 23.2842 82.0335 23.2181 81.9693 23.13C81.9051 23.042 81.7553 23.042 81.7553 23.042C81.7553 23.042 81.7981 23.042 81.2632 22.6235C80.8995 22.3592 80.5357 22.3813 80.4715 22.3372C80.4074 22.2932 80.386 22.2712 80.3218 22.1831C80.2148 22.0509 79.5729 21.8307 79.5301 21.8747C79.4873 21.9188 79.8297 22.117 79.8297 22.117C79.8297 22.117 79.4231 21.9628 79.4231 22.0509C79.4231 22.139 79.5943 22.2271 79.5943 22.2271C79.5943 22.2271 79.1878 22.0729 79.2092 22.1831C79.2092 22.1831 79.3161 22.3372 79.2947 22.3152C79.252 22.3152 79.1022 22.2491 79.0808 22.3152L79.1664 22.4253C79.1236 22.4033 78.9738 22.4694 78.9738 22.4694C78.9738 22.4694 79.1664 22.5134 79.2092 22.5134C79.1664 22.5134 78.931 22.5134 78.931 22.5575L79.1022 22.6896C79.1022 22.6896 78.9738 22.6455 78.931 22.6235C78.8882 22.6235 78.7384 22.5795 78.6742 22.6235C78.5245 22.7116 78.5673 22.5575 78.2677 22.6676C77.7542 22.8438 77.7542 22.8438 77.5188 22.9979C77.3691 23.086 76.663 23.5705 76.6202 23.4824C76.5988 23.3943 76.3848 23.1301 76.3207 23.042C76.2565 22.9539 76.0853 22.7777 76.0211 22.8217C75.7857 22.9539 75.8499 23.4604 76.0211 23.8788C76.1923 24.3193 75.8927 24.8478 75.9569 24.9359C76.0211 25.024 76.3848 24.6496 76.5988 24.3854C76.6844 24.2752 77.0267 24.2752 77.1979 24.3854C77.4333 24.5175 77.8184 24.7157 77.8184 24.7157C77.8184 24.7157 77.904 24.9359 77.9254 25.2002C77.9254 25.2883 77.9254 25.3103 78.011 25.3103C78.2035 25.3103 78.4389 25.0901 78.4389 25.0901C78.4389 25.0901 78.3747 25.046 78.6529 25.1562C78.7598 25.2002 78.824 25.2002 78.8882 25.1782C78.824 25.2443 78.7384 25.3323 78.6529 25.4204C78.5459 25.5085 78.3747 25.7948 78.3747 25.8829C78.3747 25.971 78.5031 25.971 78.6315 25.927C78.7598 25.9049 78.931 25.8169 79.1236 25.6847C79.3375 25.5526 79.4873 25.3764 79.5515 25.3544C79.6157 25.3103 79.6585 25.3764 79.6585 25.3764C79.6585 25.3764 79.6371 25.6627 79.6371 25.7508C79.6371 25.8389 79.5943 26.1912 79.6371 26.1472C79.6799 26.1032 79.7441 26.0371 79.7869 25.8829C79.8511 25.7067 79.8083 25.4645 79.8938 25.4645C81.7553 25.5746 82.5898 24.4074 82.6754 24.3193C82.7609 24.2312 82.6754 24.1431 82.6754 24.1431C82.6754 24.1431 82.5684 24.033 82.5898 24.011" fill="var(--fill-0, white)"/>
<path id="Vector_10" d="M116.888 13.7703C117.038 14.1006 116.995 14.4089 117.145 14.6952C117.337 15.0917 117.722 15.1577 117.765 15.1577C117.808 15.1577 117.808 15.1357 117.765 15.1137C117.722 15.1137 117.402 15.0917 117.188 14.6732C117.081 14.431 117.102 14.0125 116.952 13.7262C116.717 13.2638 116.268 13.484 116.054 13.6161C116.054 13.6161 116.032 13.6381 116.011 13.6161C116.011 13.6161 116.011 13.5941 116.032 13.5941C116.139 13.528 116.31 13.4399 116.353 13.3739C116.439 13.2858 116.268 13.1757 116.246 13.2197C116.203 13.2858 116.075 13.3959 115.947 13.462C115.947 13.462 115.925 13.462 115.904 13.462C115.904 13.462 115.904 13.4399 115.925 13.4399C116.011 13.3959 116.118 13.2858 116.139 13.1977C116.139 13.1096 116.075 13.1096 116.054 13.0876C115.754 12.9554 114.834 12.7572 114.256 12.4049C113.828 12.1626 113.486 11.7221 113.229 11.1275C113.165 10.9513 113.079 11.0174 113.037 11.1496C112.823 11.9644 112.866 12.515 112.887 13.3078C112.887 13.6602 112.78 14.0566 112.652 14.2548C112.587 14.3649 112.395 14.3869 112.331 14.475C112.288 14.5411 112.266 14.6072 112.245 14.6952C112.117 14.6952 111.945 14.6952 111.817 14.6952C111.71 14.6952 111.625 14.7173 111.539 14.8274C111.453 14.9155 111.453 15.0476 111.539 15.1137C111.753 15.3119 112.052 15.1798 112.309 15.0256C112.395 14.9595 112.48 14.9375 112.566 15.0036C112.716 15.1577 113.079 15.7744 113.037 16.0607C113.037 16.1047 112.972 16.1928 112.93 16.2369C112.801 16.3249 112.694 16.347 112.566 16.4351C112.416 16.5452 112.309 16.6993 112.309 16.8755C112.309 16.9196 112.352 17.0297 112.395 17.0517C112.673 17.1618 112.844 16.8535 112.994 16.6553C113.015 16.6112 113.101 16.5672 113.144 16.5452C113.208 16.5672 113.293 16.6112 113.358 16.5892C113.443 16.5672 113.55 16.413 113.593 16.4571C113.871 16.6773 113.871 16.6112 114.128 16.6553C115.069 16.8535 115.69 17.8005 116.225 18.1969C116.46 18.3731 116.503 18.2409 116.46 18.0868C116.353 17.7564 116.246 17.4701 116.182 17.1398C115.904 16.0387 116.46 14.4089 116.567 14.1447C116.588 14.0566 116.653 13.9024 116.567 13.9024C116.439 13.9024 116.353 13.9465 116.246 14.0125H116.203C116.203 14.0125 116.203 13.9905 116.225 13.9905C116.417 13.8804 116.503 13.8804 116.588 13.8584C116.631 13.8584 116.653 13.7923 116.631 13.7703C116.631 13.7262 116.588 13.7042 116.524 13.7042C116.396 13.7042 116.289 13.7703 116.182 13.8364C116.182 13.8364 116.139 13.8584 116.139 13.8364C116.139 13.8364 116.139 13.8143 116.139 13.7923C116.353 13.6602 116.738 13.484 116.888 13.7923" fill="var(--fill-0, white)"/>
<path id="Vector_11" d="M114.962 30.4637C114.962 30.4637 115.604 30.3536 115.925 29.9131C116.246 29.7369 116.503 28.5037 116.439 27.9531C116.695 27.6448 116.802 27.2263 116.76 26.8519C116.888 27.0281 117.038 27.2483 117.102 27.3144C117.209 27.9751 117.744 28.9661 117.744 28.9661C117.744 28.9661 117.872 29.2965 117.744 29.5387C118.065 29.3626 118.108 29.0983 118.065 28.8781C118.15 28.7459 117.829 27.8209 117.487 27.1162C117.252 26.874 116.717 26.0371 116.439 25.5966C116.396 25.3764 116.353 25.1562 116.353 24.9359C116.567 25.3984 117.123 26.5216 117.444 26.3895C117.637 26.8079 118.707 27.5567 119.006 27.4245C119.327 27.5126 119.605 27.3585 119.734 27.2263C119.456 27.1382 119.049 27.1162 119.049 27.1162C119.049 27.1162 118.043 26.2573 117.658 26.0591C117.273 25.5746 116.781 24.6496 116.375 24.3193C116.375 24.2312 116.375 24.1431 116.375 24.055C116.717 24.3413 117.851 25.3103 118.236 25.1121C118.621 24.9139 118.749 24.98 118.878 24.8478C119.006 24.6937 119.434 24.1431 119.327 23.3723C119.199 22.5795 119.006 22.4253 119.006 22.4253C119.006 22.4253 119.006 23.1521 119.006 23.3283C119.006 23.5044 118.45 23.8568 118.386 24.5836C117.894 24.4514 117.402 23.9449 117.081 23.8348C116.76 23.7247 116.524 23.8348 116.289 23.7027C116.161 23.3283 115.947 22.9759 115.754 22.7777C115.54 22.5575 115.219 22.3152 114.855 22.161C114.748 21.8747 114.855 21.6765 114.791 21.3462C114.727 20.9938 114.256 20.4873 114.149 19.9587C114.834 19.9367 115.219 19.3641 115.39 19.3861C115.561 19.4082 116.268 19.4302 116.268 19.4302C116.268 19.4302 116.118 19.232 115.369 19.0558C114.62 18.9016 114.064 19.2981 113.914 19.4302C113.764 19.5623 113.828 19.6724 113.614 20.0689C113.4 20.4433 114.32 21.7426 114.534 22.0289C114.427 22.0069 114.342 22.0069 114.235 21.9849C113.85 21.3902 113.122 20.9938 112.673 20.5754C112.502 20.157 111.731 19.0778 111.731 19.0778C111.731 19.0778 111.732 18.6594 111.667 18.3731C111.539 18.5052 111.389 18.7915 111.432 19.1219C111.282 19.4302 111.967 20.5754 112.352 20.7956C112.159 21.148 113.422 21.8087 113.764 22.0069C113.507 22.0069 113.251 21.9628 112.994 21.8747C112.694 21.6105 111.988 21.0158 111.753 20.7516C111.09 20.3552 110.212 19.9808 110.084 20.0468C109.87 20.0028 109.613 20.0468 109.421 20.3552C109.656 20.223 109.977 20.3552 109.977 20.3552C109.977 20.3552 110.897 20.9718 111.539 21.1039C111.582 21.192 111.86 21.3902 111.988 21.4783C111.625 21.4123 111.218 21.4563 110.876 21.6765C110.234 21.6545 109.057 21.8527 108.864 22.161C108.415 22.4694 108.287 23.1301 108.287 23.1301C108.287 23.1301 108.757 22.6015 108.971 22.5134C109.014 22.6235 110.084 22.3592 110.426 22.2712C110.426 22.2712 110.426 22.2932 110.426 22.3152C110.341 22.5575 110.277 22.8217 110.255 23.108C109.677 23.1961 108.586 23.4824 108.779 24.3413C108.501 24.9359 108.501 26.5656 108.8 26.5656C108.95 27.0722 109.784 28.1513 110.191 27.7989C109.763 27.7989 109.528 26.7198 109.592 26.5436C109.806 26.7418 110.426 27.3585 110.405 27.4906C110.512 27.3364 110.063 26.2573 110.063 26.2573C110.063 26.2573 110.063 25.0461 109.977 24.6276C109.891 24.2532 110.212 23.8568 110.277 23.7687C110.341 24.4735 110.555 25.1562 110.897 25.6186C111.475 26.4115 111.368 26.6758 111.368 26.6758C111.368 26.6758 111.582 26.6758 111.71 26.8079C111.838 26.94 111.817 27.1603 111.817 27.1603C111.817 27.1603 112.052 27.0501 112.801 27.6888C113.229 28.0632 113.893 28.3275 114.556 28.4376C114.449 28.5257 114.064 28.812 113.721 28.7019C113.315 28.5697 112.159 28.5257 112.159 28.5257C112.159 28.5257 111.132 27.9971 110.983 28.1072C111.111 28.0852 111.667 28.7459 111.86 28.9882C111.667 29.0542 110.64 28.7459 110.683 28.3055C110.319 28.7019 111.304 29.6268 111.796 29.803C111.796 30.1113 113.358 30.1994 113.935 29.9572C114.813 30.1994 115.176 28.9001 115.198 28.4816C115.454 28.4816 115.711 28.4376 115.947 28.3495C115.882 28.6138 115.583 29.759 115.711 29.803C115.604 30.0012 115.069 30.4637 115.069 30.4637" fill="var(--fill-0, white)"/>
<path id="Vector_12" d="M128.741 34.3839L128.806 34.3398L128.763 33.9434L128.827 33.8994L128.72 33.503H128.827C128.827 33.4809 128.463 32.9964 128.677 33.0405C128.72 33.0405 128.356 32.6441 128.442 32.4899C128.485 32.4018 127.843 32.1596 127.821 30.8822C127.821 30.3316 127.821 29.0984 127.329 27.821C126.645 26.0151 126.473 24.892 126.666 25.0902C126.73 25.1562 126.966 25.2884 126.944 25.2443C126.944 25.1562 126.944 25.0682 126.944 25.0682L127.158 25.2223V25.1122C127.137 25.1122 127.372 25.3104 127.372 25.3104L127.308 25.1783L127.479 25.3324C127.479 25.3324 127.5 25.2223 127.543 25.2443C127.629 25.3104 127.8 25.4425 127.8 25.4425V25.2884C127.779 25.2884 127.928 25.3765 127.928 25.3765V25.2664C127.95 25.2664 128.142 25.3985 128.057 25.3104C127.993 25.2443 128.014 25.2003 128.014 25.2003L128.185 25.2884C128.185 25.2884 128.142 25.1562 128.185 25.2443C128.228 25.3104 128.506 25.4425 128.421 25.3545C128.335 25.2884 128.078 24.958 127.95 24.8259C127.8 24.6938 127.565 24.4295 127.458 24.2313C127.351 24.0331 127.244 23.8349 127.03 23.6807C126.816 23.5265 126.645 23.5486 126.473 23.5926C125.96 23.7688 125.981 22.976 125.339 21.8968C125.168 21.6105 124.954 21.4123 124.954 20.9939C124.933 19.21 123.756 19.1219 123.499 18.8797C123.35 18.7476 123.114 18.8577 123.093 18.8797C123.007 18.8797 122.943 18.9237 122.815 18.8797C122.708 18.8136 122.558 18.7035 122.451 18.6154C122.258 18.4392 122.087 18.3732 121.98 18.5053C121.873 18.6154 121.788 18.7035 121.681 18.8797C121.574 19.0559 121.574 19.21 121.616 19.3422C121.659 19.4743 122.002 20.4874 121.916 20.6636C121.852 20.7957 121.231 21.3022 120.803 22.2492C120.761 22.3593 120.397 23.2182 120.803 24.7378C120.996 25.4646 121.381 25.9711 121.36 25.9931C121.21 26.3235 120.611 27.0502 120.418 27.777C120.29 28.2615 120.269 29.1204 120.354 29.5608C120.44 29.9793 120.611 30.4197 120.932 30.7941L121.06 30.4858L121.103 30.5959L121.253 30.2436L121.296 30.3977L121.445 30.0453L121.488 30.1775L121.659 29.693L121.702 29.8031L121.873 29.2745L121.937 29.3847L122.023 28.8341L122.087 28.9442L122.151 28.3496L122.301 28.5258C122.301 28.4156 122.28 28.1514 122.28 28.0413C122.28 27.821 122.365 27.5127 122.408 27.6669C122.408 27.7109 123.328 29.4067 124.248 30.1114C125.168 30.8161 125.682 30.8602 126.003 31.4108C126.131 31.609 126.324 31.8953 126.195 32.1816C126.088 32.4458 125.789 33.1946 125.789 33.569C125.789 33.9434 126.024 34.4279 126.088 34.538C126.195 34.7362 126.259 35.1547 126.259 35.1547L126.302 35.0225H126.431C126.431 35.0446 126.559 34.516 126.559 34.516L126.666 34.6261L126.73 34.0535L126.773 34.1636L126.923 33.6571L126.987 33.7672C126.987 33.7672 127.073 33.1726 127.094 33.3268C127.094 33.3268 127.094 33.3708 127.094 33.3928C127.094 33.3268 127.094 33.2607 127.137 33.2167C127.222 33.0405 127.222 32.8202 127.222 32.8202C127.222 32.8863 127.222 32.4679 127.244 32.4899C127.286 32.6 127.458 32.6 127.393 32.8202C127.372 32.9083 127.351 33.0184 127.351 33.1065C127.308 33.503 127.522 34.1636 128.035 34.538C128.271 34.7142 128.527 34.8243 128.527 34.8243L128.699 34.8904L128.613 34.6481L128.827 34.6922L128.741 34.494V34.3839Z" fill="var(--fill-0, white)"/>
<path id="Vector_13" d="M110.555 5.29144C110.619 5.31346 110.683 5.35751 110.747 5.40155C110.919 5.53369 111.09 5.64381 111.239 5.75392C111.732 6.10629 113.893 7.55981 114.342 8.24252C114.064 8.15443 113.636 7.75801 112.801 7.09732C111.988 6.43663 110.876 5.95213 110.362 5.57774C109.87 5.29144 110.491 5.79797 110.598 5.90808C111.154 6.54675 112.309 7.25149 112.309 7.25149C112.309 7.25149 109.592 5.81999 109.25 5.1593C109.078 4.93907 109.143 5.29144 109.335 5.53369C109.72 5.97415 110.212 6.48068 110.961 6.89912C111.732 7.31755 112.566 7.66992 113.187 8.17645C113.037 8.44073 111.582 7.31755 110.961 7.29553C110.94 7.29553 110.812 7.29553 111.282 7.49374C112.202 7.8461 112.844 8.66096 113.55 8.94725C114.363 9.2776 115.048 9.32164 115.326 9.54187C115.561 9.74008 115.968 9.78413 116.439 9.80615C116.096 9.89424 115.775 9.87222 115.604 9.82817C115.369 9.7621 115.091 9.54187 115.091 9.54187C115.027 9.7621 117.295 12.4489 119.413 13.6381C121.51 14.8054 120.504 16.4571 121.424 16.3029C122.344 16.1488 123.221 15.6643 123.221 15.6643C123.221 15.6643 123.264 15.5762 123.221 15.4661C124.462 16.0827 124.441 15.5982 124.013 15.2238C123.885 15.1137 123.778 14.9815 123.671 14.8714C123.778 14.9155 123.906 14.8714 123.906 14.8714C123.906 14.8714 124.141 14.1227 123.799 13.528C123.607 13.1977 122.815 13.3959 122.259 12.7352C121.702 12.0745 121.681 11.8102 121.381 11.3698C120.547 10.0924 117.894 8.1324 117.894 8.1324C117.894 8.1324 118.043 8.37466 117.872 8.55084C117.808 8.19847 117.637 7.82408 117.038 7.60385C117.038 7.16339 116.738 7.05328 116.417 7.20744C116.096 7.33957 116.011 7.40565 116.011 7.40565C116.011 7.40565 115.283 6.45866 114.107 6.06224C112.994 5.68785 112.053 4.74086 111.346 4.25636C110.705 3.83792 111.282 4.32243 111.475 4.67479C111.881 5.35751 112.908 6.52473 113.743 6.89912C114.706 7.3616 115.198 8.04431 114.813 7.95622C114.428 7.86813 112.138 6.21641 111.539 5.59976C110.983 5.02716 110.833 4.47659 109.956 4.08017C109.87 4.03613 109.549 3.88197 109.528 3.92601C109.485 3.97006 109.592 4.05815 109.613 4.12422C109.421 4.03613 108.864 3.79388 108.971 3.99208C109.378 4.63075 110.041 5.07121 110.512 5.31346" fill="var(--fill-0, white)"/>
<path id="Vector_14" d="M123.307 37.1146C123.157 37.2688 122.686 36.1456 122.622 36.6081C122.601 36.7623 121.938 35.7492 121.959 36.3218C121.959 36.3218 121.338 35.5069 121.36 35.9474C121.36 36.2117 121.039 35.573 120.975 35.7052C120.697 36.2337 120.782 34.6921 120.59 35.2207C120.547 35.3308 120.675 34.6921 120.483 34.9123C120.418 35.0004 120.568 34.2516 120.376 34.582C120.333 34.6701 120.483 34.1635 120.29 34.3618C120.204 34.4498 120.611 33.8112 120.354 33.9433C120.311 33.9653 120.525 33.7892 120.59 33.7011C120.654 33.613 120.483 33.679 120.547 33.613C120.632 33.5029 120.739 33.5029 120.804 33.4368C120.868 33.3707 120.782 33.3487 120.804 33.3267C120.889 33.2606 121.082 33.2606 121.167 33.1505C121.296 32.9743 120.975 32.9963 120.975 32.9743C120.975 32.9523 120.975 32.8862 121.018 32.7981C121.018 32.71 121.018 32.6219 120.932 32.666C120.868 32.688 120.804 32.8422 120.825 32.7981C120.846 32.6219 120.654 33.0184 120.654 32.8862C120.654 32.688 120.525 33.2166 120.504 33.1064C120.461 32.8422 120.354 33.4808 120.333 33.3487C120.311 33.0404 120.247 33.7892 120.119 33.7231C120.012 33.679 120.311 33.1725 120.162 33.1945C120.119 33.1945 120.418 32.8862 120.29 32.9303C120.269 32.9303 120.354 32.7541 120.29 32.732C120.269 32.732 120.461 32.5338 120.376 32.5559C120.333 32.5559 120.504 32.3577 120.461 32.2696C120.418 32.2035 120.333 32.3136 120.333 32.3136C120.333 32.3136 120.333 32.1595 120.29 32.1815C120.247 32.1815 120.14 32.3577 120.14 32.4678C120.14 32.5338 120.097 32.644 120.076 32.6219C120.012 32.5559 119.948 33.0844 119.926 33.0184C119.884 32.9082 119.948 33.4588 119.884 33.3487C119.819 33.2386 119.841 33.657 119.819 33.613C119.755 33.5469 119.798 33.7892 119.819 33.9213C119.819 33.9874 119.777 33.8332 119.755 33.8993C119.712 33.9653 119.798 34.1635 119.819 34.2516C119.841 34.3397 119.67 34.1856 119.819 34.5159C119.905 34.6701 119.67 34.5159 119.777 34.7361C119.862 34.8903 120.119 35.3968 120.033 35.4629C120.012 35.4849 119.434 34.9343 119.541 35.2647C119.563 35.3528 119.006 34.7582 119.07 34.9784C119.113 35.1105 118.878 34.9784 118.792 34.8242C118.792 34.8242 118.792 34.8242 118.792 34.8022C118.792 34.7582 118.771 34.6921 118.75 34.6481C118.75 34.56 118.771 34.4498 118.856 34.2516C119.028 34.0314 118.856 34.0534 118.856 34.0314C118.899 33.9653 119.07 33.7892 118.899 33.8112C118.835 33.8112 119.092 33.5689 119.006 33.613C118.921 33.657 119.242 33.3047 119.135 33.3487C119.113 33.3487 119.22 33.2606 119.263 33.1285C119.306 32.9963 119.263 32.9303 119.22 32.9743C119.22 32.9303 119.327 32.7541 119.37 32.71C119.477 32.644 119.648 32.3136 119.648 32.1815C119.67 31.9833 119.541 32.0714 119.541 32.0714C119.541 32.0714 119.67 31.741 119.605 31.6749C119.541 31.5648 119.306 32.1374 119.327 32.0273C119.37 31.719 119.156 32.3797 119.156 32.2916C119.156 32.1374 118.963 32.7321 118.963 32.644C118.963 32.5118 118.835 33.0844 118.814 32.9523C118.814 32.8422 118.771 33.0844 118.707 33.3046C118.707 33.3046 118.707 33.2386 118.643 33.3267C118.6 33.4368 118.578 33.5029 118.557 33.613C118.493 33.4588 118.835 32.7761 118.685 32.9082C118.664 32.9303 118.921 32.5118 118.792 32.6219C118.707 32.688 119.113 32.0493 119.006 32.1374C118.878 32.2475 119.306 31.6089 119.156 31.697C119.113 31.719 119.263 31.5208 119.306 31.3226C119.349 31.1244 119.284 31.0583 119.199 31.1244C119.113 31.2125 118.985 31.4767 118.985 31.4547C118.985 31.4547 119.07 30.9041 118.878 31.1244C118.835 31.1904 118.664 31.4988 118.621 31.7851C118.6 31.9172 118.578 31.6749 118.514 31.8952C118.45 32.1154 118.471 32.1815 118.407 32.4898C118.364 32.71 118.364 32.4017 118.3 32.666C118.257 32.9303 118.322 33.3707 118.279 33.2826C118.279 33.2606 118.236 33.2386 118.215 33.3267C118.15 33.4808 118.215 33.9653 118.172 34.2296C118.172 34.2957 118.129 34.3177 118.108 34.3177C118.108 34.3177 118.108 34.2957 118.086 34.2737C118.108 34.0755 118.129 34.0314 118.129 33.8772C118.129 33.7231 118.022 33.9874 118.022 33.8772C118.022 33.657 118.108 33.4588 118.022 33.5249C117.979 33.5469 118.15 33.0624 118.043 33.1725C118.001 33.2166 118.129 32.8201 118.043 32.9303C118.001 32.9743 118.193 32.5118 118.108 32.4237C118.086 32.4017 118.108 32.1815 118.15 32.0934C118.215 31.9392 118.257 31.5648 118.215 31.4327C118.172 31.2785 118.086 31.4547 118.086 31.4547C118.086 31.4547 118.086 31.1024 118.001 31.1024C117.894 31.1024 117.894 31.697 117.872 31.6089C117.808 31.3446 117.851 32.0273 117.808 31.9612C117.744 31.8511 117.808 32.4458 117.765 32.4017C117.701 32.2916 117.787 32.8422 117.765 32.7541C117.68 32.5999 117.936 33.5029 117.787 33.4808C117.658 33.4588 117.744 32.6219 117.637 32.8422C117.637 32.8862 117.701 32.3356 117.637 32.5338C117.594 32.666 117.722 31.8291 117.637 32.0053C117.573 32.1815 117.722 31.3446 117.637 31.5428C117.615 31.5869 117.68 31.3226 117.637 31.1244C117.615 30.9482 117.53 30.9482 117.487 31.0803C117.444 31.2125 117.423 31.5208 117.402 31.5208C117.402 31.5208 117.295 31.0583 117.188 31.3887C117.145 31.4767 117.123 31.8291 117.188 32.1154C117.188 32.2475 117.123 32.0714 117.145 32.2916C117.145 32.5118 117.188 32.5338 117.273 32.8201C117.316 33.0184 117.209 32.8201 117.252 33.0184C117.188 32.8201 117.145 32.5338 117.059 32.4237C116.888 32.2255 116.909 32.5999 116.781 32.4237C116.588 32.1815 116.588 31.8071 116.46 31.6309C116.31 31.4547 116.289 31.7851 116.246 31.6309C116.139 31.3226 115.968 31.0803 115.84 31.0803C115.39 31.0803 115.647 31.8291 115.604 31.8732C115.561 31.8952 115.347 31.6309 115.005 31.5869C114.855 31.5648 114.727 31.697 114.77 31.8952C114.834 32.1154 115.198 32.1374 115.134 32.1595C114.791 32.2696 115.69 32.4898 115.412 32.5338C115.155 32.5779 116.032 32.8422 115.818 32.9082C115.497 32.9963 116.289 33.2386 116.225 33.2606C115.861 33.4148 116.867 33.5909 116.781 33.9433C116.674 34.3617 115.818 33.7231 115.947 34.1415C115.989 34.2516 115.39 33.9213 115.476 34.1415C115.519 34.2516 114.898 33.9433 115.112 34.2296C115.176 34.3397 114.62 34.1635 114.556 34.4939C114.513 34.7141 114.877 34.6921 114.877 34.6921C114.877 34.6921 114.534 34.9123 114.748 34.9564C114.962 35.0004 115.283 34.6481 115.112 34.9564C115.027 35.0885 115.861 34.7141 115.797 34.7802C115.412 35.1546 116.631 34.626 116.546 34.7802C116.417 35.0445 116.738 34.7802 116.995 34.7802C117.252 34.7802 117.466 34.7582 117.188 34.8683C116.909 34.9784 117.423 35.0885 117.594 35.1105C117.701 35.1105 117.722 35.1986 117.658 35.2207C117.594 35.1986 117.53 35.1546 117.466 35.1766C117.38 35.1766 117.402 35.1986 117.402 35.2207C117.423 35.3087 117.188 35.1105 116.995 35.0665C116.802 35.0224 116.995 35.1326 116.824 35.1105C116.588 35.0665 116.546 35.0224 116.375 35.0224C116.203 35.0224 116.332 35.1105 116.246 35.0885C116.011 35.0665 115.711 35.1105 115.647 35.1546C115.369 35.2867 115.775 35.3528 115.775 35.3748C115.775 35.3968 115.519 35.4409 115.412 35.4849C115.305 35.529 115.326 35.6391 115.454 35.6391C115.604 35.6391 115.818 35.573 115.797 35.595C115.647 35.7052 116.31 35.4849 116.161 35.573C116.032 35.6611 116.695 35.4409 116.588 35.5069C116.439 35.6171 116.867 35.4849 116.845 35.5069C116.674 35.6171 117.359 35.4849 117.38 35.595C117.423 35.7272 116.653 35.551 116.781 35.6171C116.845 35.6611 116.396 35.6171 116.503 35.6611C116.546 35.6831 116.054 35.6831 116.161 35.7492C116.203 35.7712 115.668 35.7712 115.882 35.8373C115.947 35.8373 115.454 35.9034 115.476 36.0135C115.476 36.0795 115.754 36.0795 115.775 36.0575C115.775 36.0575 115.733 36.1016 115.733 36.1236C115.733 36.1236 115.711 36.1236 115.69 36.1236C115.454 36.1236 115.134 36.1236 115.347 36.3218C115.497 36.4539 114.556 36.1236 114.77 36.3879C114.877 36.52 114.32 36.3879 114.106 36.6081C113.743 36.9605 114.299 37.1146 114.299 37.1366C114.299 37.1807 114.106 37.4229 114 37.5991C113.893 37.7533 113.957 37.9735 114.171 37.9515C114.385 37.9295 114.62 37.6432 114.599 37.7092C114.47 38.0616 115.241 37.2247 115.112 37.511C114.984 37.7533 115.775 36.9825 115.668 37.1807C115.519 37.489 116.032 36.9605 116.011 37.0486C115.947 37.445 116.439 36.7182 116.546 37.0045C116.674 37.3128 115.775 37.2468 115.989 37.3349C116.118 37.4009 115.476 37.489 115.626 37.5551C115.711 37.5991 115.027 37.7973 115.198 37.8854C115.283 37.9295 114.534 38.1938 114.877 38.2158C114.984 38.2158 114.342 38.5461 114.427 38.7884C114.492 38.9646 114.877 38.7884 114.877 38.7884C114.877 38.7884 114.834 39.1187 115.069 39.0086C115.347 38.8544 115.604 38.3479 115.604 38.5902C115.604 38.8324 115.968 38.1277 115.968 38.1938C115.947 38.5241 116.439 37.7533 116.417 37.8854C116.417 38.2598 116.695 37.6212 116.695 37.7753C116.674 38.0616 117.081 37.445 117.081 37.5331C117.038 37.9075 117.573 37.0926 117.509 37.3349C117.423 37.6212 117.829 37.2468 117.979 37.1807C118.15 37.0926 117.936 37.445 118.193 37.2688C118.429 37.0926 118.578 37.0265 118.707 36.9825C119.028 36.8504 118.814 37.1807 118.664 37.3128C118.493 37.467 118.15 37.511 118.022 37.6652C117.958 37.7533 117.979 37.7753 118.022 37.7753C118.108 37.8414 117.744 37.8634 117.53 38.0396C117.337 38.1937 117.573 38.1277 117.402 38.2598C117.145 38.458 116.931 38.7223 116.931 38.8544C116.931 39.1187 117.188 38.8324 117.102 38.9646C116.952 39.2288 116.781 39.7574 116.802 39.8675C116.802 40.2859 117.081 39.8235 117.102 39.8235C117.102 39.8235 117.059 40.1758 117.059 40.33C117.059 40.4841 117.166 40.5282 117.273 40.33C117.38 40.1538 117.359 39.8455 117.402 39.9115C117.53 40.1758 117.466 39.2288 117.551 39.4491C117.658 39.6913 117.637 38.7443 117.701 38.8765C117.808 39.1187 117.872 38.5241 117.872 38.5681C117.872 38.9425 118.193 38.0396 118.343 38.1497C118.471 38.2378 117.979 38.9205 118.108 38.8324C118.172 38.7884 117.936 39.2288 118.108 39.0967C118.15 39.0747 118.001 39.4711 118.108 39.361C118.15 39.3389 118.065 39.8014 118.172 39.5812C118.215 39.5151 118.257 39.8895 118.364 39.8675C118.45 39.8455 118.407 39.6252 118.407 39.6252C118.407 39.6252 118.514 39.7133 118.557 39.6032C118.557 39.5151 118.493 39.2729 118.407 39.2068C118.364 39.1628 118.45 39.1628 118.471 39.1628C118.536 39.2068 118.386 38.7443 118.429 38.7884C118.536 38.8765 118.429 38.5681 118.493 38.6562C118.578 38.8104 118.6 38.2598 118.621 38.3039C118.664 38.436 118.792 37.8634 118.856 38.0176C118.921 38.1937 119.006 37.5771 119.006 37.6212C119.006 37.6652 119.07 37.8194 119.177 37.467C119.242 37.2908 119.563 36.9825 119.841 36.8503C119.926 36.8283 120.226 36.7623 120.14 36.8503C119.862 37.2027 120.911 36.6742 120.654 36.9384C120.44 37.1587 121.296 36.9825 121.424 36.9605C121.574 36.9605 121.189 37.0926 121.381 37.1366C121.595 37.1807 121.724 37.1146 121.852 37.0706C122.066 37.0265 121.595 37.2468 121.959 37.2688C122.109 37.2688 122.344 37.2688 122.387 37.2468C122.002 37.4229 122.836 37.467 122.729 37.5551C122.515 37.7092 123.435 37.7973 123.264 37.8634C123.072 37.9515 123.97 37.9735 123.949 37.6652C123.949 37.5771 123.606 36.8283 123.35 37.0926M117.509 34.8463C117.337 34.8903 117.081 34.8242 116.974 34.8463C116.931 34.8683 116.931 34.8903 116.952 34.8903C116.76 34.8903 116.546 34.8463 116.439 34.8903C116.353 34.9344 116.353 34.9123 116.375 34.9564C116.417 35.0445 116.31 34.9784 116.161 34.9123C116.203 34.8683 116.375 34.7802 116.353 34.8022C116.31 34.9344 116.695 34.7361 116.674 34.7802C116.631 34.8683 116.845 34.7361 116.824 34.7802C116.781 34.8683 117.059 34.7141 117.038 34.7361C116.995 34.8242 117.145 34.7361 117.273 34.7361C117.337 34.7361 117.166 34.7582 117.273 34.8022C117.359 34.8242 117.423 34.7582 117.509 34.7361C117.509 34.7582 117.509 34.8022 117.487 34.8242" fill="var(--fill-0, white)"/>
<path id="Vector_15" d="M81.9479 60.6352C80.9851 60.6352 80.1078 61.1197 79.5301 61.6923C78.9524 62.2429 80.0437 61.9345 80.3432 61.8685C81.2204 61.6262 82.0549 61.9786 82.8466 62.7053C83.2317 63.0357 84.2373 62.9696 84.5583 62.5071C84.9862 61.8905 83.5954 60.6572 81.9907 60.6572" fill="var(--fill-0, white)"/>
<path id="Vector_16" d="M82.4401 56.0544C81.9265 56.0544 81.1135 55.9883 80.4502 55.3056C79.4018 54.2485 77.8184 53.5438 76.663 53.4117C75.5076 53.2795 74.6732 53.2575 72.7261 53.9402C70.5437 54.711 70.993 56.2967 71.8275 56.4729C72.6833 56.649 73.7959 56.1645 74.3095 55.2616C74.716 54.5348 75.6574 53.8301 76.6845 54.1825C77.3049 54.4027 78.5031 55.4598 78.3962 56.4288C78.3534 56.8693 76.5347 56.583 73.9457 58.2567C72.0415 59.49 72.5764 61.6483 73.7104 62.7494C74.8658 63.8506 76.3849 64.4231 77.6901 64.3571C78.9953 64.291 80.7283 63.6744 80.6214 63.2559C80.5144 62.8375 80.0437 62.6393 79.4232 62.7934C78.9097 62.9256 77.9682 62.8815 77.5403 61.8024C77.1766 60.8774 78.6957 59.7543 80.1507 59.4019C81.5842 59.0716 85.7779 58.0585 85.4569 56.9574C85.136 55.8562 82.975 56.0544 82.4615 56.0544" fill="var(--fill-0, white)"/>
<path id="Vector_17" d="M84.9434 50.835C82.0335 50.2624 82.6968 51.0552 82.9108 51.4957C82.654 51.4957 82.2475 51.2094 80.6856 51.1873C79.4018 51.1873 78.2892 51.9802 78.2892 51.9802C77.8827 52.2444 77.7329 52.8611 77.9255 52.7069C78.118 52.5748 78.8883 52.3546 79.8725 52.3546C81.4344 52.3546 81.6484 53.2355 83.8308 53.2575C85.457 53.2795 87.404 52.7069 87.5324 52.0462C87.6394 51.6058 85.7137 50.9891 84.9221 50.835" fill="var(--fill-0, white)"/>
<path id="Vector_18" d="M72.4479 18.3291C72.7047 17.9987 72.9828 17.7344 73.2395 17.4261C73.3893 17.272 73.5391 17.0737 73.6889 16.8976C73.8387 16.7214 74.0312 16.5892 74.2024 16.4131C74.5019 16.1268 74.8229 15.8625 75.1652 15.6422C75.4434 15.422 75.8499 15.3119 76.1708 15.1798C76.5774 15.0036 76.9625 14.9816 77.3476 15.1798C77.5402 15.2679 77.7542 15.2899 77.9681 15.3119C78.1393 15.3339 78.2891 15.356 78.4603 15.378C78.6528 15.4 78.824 15.378 78.9952 15.2899C79.3589 15.1577 79.7226 14.9155 80.0222 15.3119C80.1292 15.444 80.2148 15.6863 80.172 15.8625C80.065 15.6643 79.8724 15.7744 79.7012 15.8184C79.5087 15.8845 79.2947 15.9285 79.1021 15.9946C78.8882 16.0827 78.6742 16.1708 78.4603 16.2809C78.1607 16.4351 77.8612 16.6773 77.7328 17.0077C77.6686 17.1398 77.6258 17.2279 77.7542 17.272C77.8612 17.294 78.0109 17.272 78.1179 17.2499C78.2891 17.2059 78.4817 17.2059 78.6528 17.1618C79.0166 17.1178 79.3589 17.1398 79.7226 17.0297C80.1506 16.9196 80.5999 16.7874 81.0492 16.7654C81.2632 16.7654 81.4343 16.7214 81.6483 16.6994C81.8623 16.6773 82.0548 16.5672 82.2688 16.5232C82.44 16.4791 82.5897 16.5232 82.7395 16.5672C83.1033 16.7214 83.3386 17.0077 83.6596 17.2279C83.8307 17.36 83.9591 17.5803 84.1517 17.6904C84.5368 17.9106 84.9647 18.1749 85.2001 18.5713C85.4569 18.9897 85.842 19.3421 86.0987 19.8046C86.3341 20.223 86.5267 20.6855 86.6764 21.148C86.762 21.4343 86.869 21.7426 86.7834 22.0509C86.7406 22.2051 86.655 22.1831 86.5267 22.117C86.3769 22.0509 86.2485 21.9849 86.0987 21.9408C85.9062 21.8968 85.7136 21.7867 85.5638 21.7206C85.4569 21.6545 85.3927 21.5885 85.2857 21.5004C85.0931 21.3462 84.815 21.3022 84.601 21.2361C84.4512 21.192 84.2587 21.104 84.1303 21.0159C84.0019 20.9278 83.8735 20.7956 83.7237 20.7296C83.6382 20.6855 83.574 20.6855 83.4884 20.6415C83.4028 20.5974 83.3386 20.5093 83.253 20.4653C82.9963 20.3331 82.7181 20.2451 82.5042 20.0909C82.226 19.8927 81.8623 19.9367 81.5841 19.7826C81.4343 19.7165 81.3702 19.6504 81.199 19.6945C81.092 19.6945 81.0492 19.7385 80.9422 19.6945C80.8566 19.6725 80.8138 19.6064 80.7283 19.6064C80.6641 19.6064 80.6213 19.6504 80.5571 19.6284C80.4929 19.6284 80.4501 19.5403 80.3859 19.5403C80.2575 19.5403 80.2148 19.6945 80.0436 19.6945C80.0008 19.6945 79.9366 19.6284 79.8938 19.6284C79.8296 19.6284 79.7868 19.6725 79.744 19.6945C79.6157 19.7385 79.4659 19.6945 79.3375 19.6945C79.2091 19.6945 79.1021 19.6945 78.9952 19.6945C78.931 19.6945 78.8668 19.6725 78.8026 19.6725C78.6742 19.6725 78.5672 19.7165 78.4389 19.7165C78.2891 19.7165 78.1607 19.6725 78.0109 19.6725C77.8612 19.6725 77.6258 19.7165 77.4546 19.7826C77.3049 19.8266 77.1765 19.8707 77.0267 19.8927C76.8127 19.9367 76.7699 19.9808 76.6416 20.157C76.235 20.7075 75.7857 21.2361 75.315 21.7206C75.0796 21.9628 74.8229 22.2051 74.5447 22.4033C74.3094 22.5795 74.0312 22.6676 73.8173 22.8438C73.6247 22.9979 73.4535 23.1741 73.261 23.3283C72.8116 23.6806 72.3623 24.033 71.8702 24.2973C71.4423 24.5395 70.9715 24.7598 70.6078 25.0901C70.3083 25.3764 70.2869 25.7288 70.2013 26.1032C70.1371 26.4555 69.7733 26.6317 69.6022 26.918C69.4096 27.2484 69.1956 27.6228 68.9175 27.887C68.6607 28.1293 68.4896 28.4816 68.19 28.6799C67.8477 28.9001 68.19 28.4816 68.1472 28.3936C67.9333 28.5697 68.083 28.1953 68.1472 28.1073C68.2542 27.9311 68.3826 27.7329 68.5538 27.6007C68.6607 27.4906 68.7891 27.4245 68.8747 27.3144C68.9389 27.2263 68.9817 27.1162 69.0673 27.0281C69.1743 26.896 69.2812 26.7639 69.3882 26.6537C69.4524 26.5656 69.5594 26.4776 69.5594 26.3674C69.4096 26.4115 69.217 26.5436 69.0673 26.6317C68.8747 26.7198 68.7463 26.918 68.5752 27.0281C68.404 27.1603 67.8905 27.9091 67.6551 27.6668C67.6123 27.6228 67.7621 27.5567 67.5695 27.5787C67.5481 27.5787 67.3342 27.6888 67.3128 27.6668C67.2058 27.5567 67.6123 27.2484 67.6765 27.2043C67.5481 27.1823 67.6765 27.0281 67.7193 26.94C67.7621 26.7639 67.6551 26.7418 67.5267 26.8519C67.3342 27.0061 67.056 27.2704 66.8207 27.3365C66.8207 27.1603 66.8848 26.9841 66.9704 26.8299C67.0988 26.6097 67.27 26.4776 67.4412 26.3014C67.6551 26.1032 67.8263 25.8169 68.0402 25.5966C68.1686 25.4645 68.2756 25.3103 68.404 25.1782C68.511 25.0461 68.5324 24.9359 68.5966 24.7818C68.7035 24.5395 68.9175 24.3413 69.0673 24.0991C69.2598 23.7908 69.431 23.4824 69.645 23.2182C69.8161 22.9979 69.9659 22.7777 70.0087 22.5134C70.0087 22.4473 70.0515 22.3593 70.0087 22.2932C69.9445 22.2051 69.8803 22.2932 69.7947 22.2932C69.7092 22.2932 69.7092 22.1831 69.6236 22.1611C69.5594 22.1611 69.4952 22.2271 69.431 22.2712C69.2598 22.3813 69.0887 22.5134 68.8747 22.4474C68.3826 22.3372 68.0616 22.6896 67.8263 23.1301C67.5481 23.6366 67.1844 24.055 66.8634 24.5395C66.4783 25.1121 66.0076 25.6187 65.6011 26.1692C65.2159 26.6978 64.9164 27.2924 64.574 27.843C64.3815 28.1293 64.2317 28.5257 63.8466 28.5037C63.9536 28.0632 63.9963 27.5567 64.2531 27.1603C64.574 26.6317 65.002 26.1913 65.3229 25.6627C65.5583 25.2663 65.7722 24.8258 65.922 24.3854C65.9862 24.1872 66.0718 24.011 66.136 23.8128C66.1788 23.7027 66.2216 23.5705 66.2858 23.4604C66.3713 23.3283 66.4569 23.3062 66.5211 23.1741C66.6281 22.9319 66.7565 22.7557 66.949 22.5575C67.0774 22.4253 67.2058 22.3152 67.3128 22.1611C67.4412 22.0069 67.5267 21.8307 67.6337 21.6545C67.7407 21.4783 67.8905 21.3682 68.0402 21.2141C68.1686 21.0599 68.2542 20.9057 68.404 20.7516C68.6393 20.5093 68.9603 20.3331 69.2384 20.157C69.7092 19.8486 70.2869 19.7826 70.7576 19.5403C71.0143 19.4082 71.2711 19.276 71.5278 19.1439C71.913 18.9457 72.2339 18.5713 72.5121 18.241" fill="var(--fill-0, white)"/>
<path id="Vector_19" d="M67.6766 43.215C67.6766 43.0388 67.5696 42.8847 67.5054 42.7525C67.3985 42.4883 67.2701 42.246 67.1417 41.9817C67.0133 41.7175 66.8636 41.4312 66.6924 41.1889C66.4998 40.9246 66.2431 40.6824 66.2645 40.33C66.3073 39.5592 67.2487 39.6253 67.805 39.4931C68.1901 39.4051 68.5325 39.2729 68.8962 39.1628C69.2386 39.0527 70.3512 38.7444 70.0302 38.1938C69.8376 37.8634 69.2172 37.9295 68.8962 37.9515C68.6822 37.9515 68.2543 38.0837 68.2329 37.7754C68.2329 37.5992 68.3399 37.467 68.4897 37.401C68.7892 37.2688 69.046 37.2248 69.3455 37.2028C69.6665 37.1807 69.9446 37.0706 70.2656 37.0045C70.8005 36.8724 71.207 36.9165 71.6135 37.2908C71.9131 37.5551 72.2768 37.7313 72.5978 37.9736C72.8973 38.2158 73.2611 38.1497 73.6248 38.1718C74.0313 38.2158 74.4165 38.2158 74.823 38.2819C75.2723 38.37 75.7216 38.5241 76.1282 38.7444C76.3421 38.8545 76.5989 38.8765 76.7915 39.0086C76.9198 39.0967 77.0482 39.2068 77.1552 39.2949C77.3478 39.4271 78.0752 40.1538 78.0538 39.5372C78.0538 38.9866 77.3264 39.0086 76.984 38.7664C76.6845 38.5682 76.6203 38.0837 77.0482 38.0396C77.6045 37.9956 78.1394 38.3039 78.6743 38.436C79.2092 38.5682 79.7441 38.9426 80.1079 39.361C80.2363 39.5152 80.4502 39.6913 80.4502 39.8896C80.4502 40.0878 80.3218 40.2199 80.1935 40.33C79.9795 40.5062 79.6158 40.5282 79.4874 40.7705C79.4018 40.9026 79.359 41.0348 79.2734 41.1669C79.145 41.3211 78.9525 41.3871 78.9953 41.6074C79.0381 41.9817 78.8883 42.4002 78.9953 42.7525C79.0809 43.1049 79.5944 43.0829 79.8939 43.0829C80.1935 43.0829 80.2577 43.0829 80.4288 43.171C80.5786 43.2371 80.6856 43.3251 80.8568 43.3031C81.0065 43.3031 81.0921 43.215 81.2205 43.3692C81.3703 43.5454 81.3275 43.8317 81.3703 44.0519C81.4131 44.3162 81.5628 44.5584 81.734 44.7566C81.8624 44.9328 82.0763 45.1971 81.9694 45.3953C81.841 45.6816 81.5414 45.6155 81.2847 45.6816C80.8354 45.7917 80.2791 46.1441 79.8297 45.9239C79.5944 45.8137 79.4232 45.6155 79.1878 45.4834C78.8027 45.2852 78.225 45.0429 77.7757 45.1751C77.6259 45.2191 77.4975 45.3292 77.3478 45.3733C77.198 45.4173 77.0268 45.4393 76.8984 45.5495C76.7701 45.6596 76.7273 45.8137 76.5775 45.9239C76.3849 46.034 76.171 46.1221 75.957 46.1881C75.6788 46.2982 75.3793 46.2982 75.1011 46.4084C74.9942 46.4524 74.8016 46.5185 74.7588 46.6286C74.6946 46.7607 74.8444 46.9369 74.8658 47.047C74.9086 47.2452 74.93 47.4434 74.9728 47.6416C75.037 48.0821 75.0156 48.7208 74.5448 48.941C74.3523 49.0291 74.1169 49.1172 73.903 49.1833C73.6248 49.2934 73.3253 49.2493 73.0471 49.2493C72.7689 49.2493 72.6192 49.3594 72.3624 49.4255C72.0843 49.4916 71.8703 49.5136 71.5707 49.4916C71.0786 49.4916 70.5437 49.4916 70.0944 49.2493C69.6451 49.0071 69.1744 48.7868 68.832 48.3684C68.725 48.2142 68.6609 48.0381 68.6395 47.8619C68.5753 47.5536 68.832 47.5536 69.0674 47.5536C69.4739 47.5536 69.8804 47.4214 70.2656 47.4434C70.8647 47.4434 71.4852 47.7518 72.0843 47.6637C72.6406 47.5756 72.3196 46.9589 72.1271 46.6726C71.9131 46.2982 71.421 46.1441 71.0358 45.9899C70.5437 45.7917 70.0944 45.5274 69.6451 45.2632C69.5595 45.2191 69.4311 45.109 69.3241 45.087C69.2172 45.087 69.0888 45.131 69.0032 45.1531C68.7464 45.1971 68.4683 45.1751 68.1901 45.1971C67.9976 45.1971 67.8478 45.3072 67.6552 45.3292C67.4413 45.3513 67.2273 45.3292 67.0133 45.3292C66.1575 45.3292 65.6868 44.6906 65.43 43.9638C65.1733 43.237 65.3658 43.7216 65.3016 43.5894C65.216 43.4573 65.0663 43.3472 64.9807 43.237C64.7881 43.0168 64.7453 42.6865 64.9379 42.4662C65.1946 42.1579 65.4942 42.5103 65.751 42.6424C66.0505 42.7966 66.3501 43.1269 66.6924 43.171C67.0133 43.215 67.3985 42.9067 67.6766 43.1049" fill="var(--fill-0, white)"/>
<path id="Vector_20" d="M71.9771 32.2916C71.9771 32.2916 70.2868 30.9262 67.8904 31.763C65.494 32.6219 65.494 33.2826 65.494 33.2826C65.494 33.2826 65.1945 33.8332 64.9377 33.9433C64.6596 34.0534 62.7553 33.5689 62.4344 33.5689C62.1134 33.5689 62.6911 34.0975 62.8409 34.4278C63.0121 34.7582 63.1832 34.8683 63.1832 34.8683C63.1832 34.8683 63.3116 36.3879 63.2046 36.52C63.0977 36.6521 64.1033 35.4849 64.36 35.3528C64.6168 35.2207 64.7452 34.8242 65.1089 34.8022C65.4512 34.8022 66.4997 35.0885 67.4625 34.8463C68.4253 34.604 67.7193 34.9564 67.7193 34.9564L68.4253 35.0004C68.4253 35.0004 69.5593 34.4278 69.8375 34.2957C70.137 34.1415 71.2497 33.7011 71.4422 33.3927C71.6562 33.0844 71.8274 32.7761 72.0199 32.732C72.1911 32.688 72.2339 32.4237 72.0199 32.2916" fill="var(--fill-0, white)"/>
<path id="Vector_21" d="M77.6259 34.582C77.6259 34.582 76.9626 33.5689 75.8286 33.657C74.6946 33.7451 74.6518 34.0975 74.6518 34.0975C74.6518 34.0975 74.4806 34.3617 74.3523 34.3617C74.2239 34.3617 73.4108 33.8112 73.2611 33.7671C73.1113 33.7231 73.3466 34.0975 73.3894 34.2957C73.4322 34.4939 73.5178 34.604 73.5178 34.604C73.5178 34.604 73.475 35.4409 73.4322 35.5069C73.3894 35.573 73.9029 35.0885 74.0313 35.0444C74.1597 35.0224 74.2453 34.8242 74.3951 34.8683C74.5448 34.9123 74.9942 35.2427 75.4435 35.2647C75.8928 35.2647 75.5505 35.3748 75.5505 35.3748L75.85 35.5069C75.85 35.5069 76.3849 35.3748 76.5347 35.3308C76.6845 35.2867 77.198 35.2206 77.305 35.0885C77.4119 34.9564 77.5189 34.8242 77.6045 34.8242C77.6901 34.8242 77.7115 34.6921 77.6259 34.582Z" fill="var(--fill-0, white)"/>
<path id="Vector_22" d="M70.1798 29.1203C70.1798 29.1203 71.1641 27.5787 72.8544 27.6888C74.5447 27.7989 74.6089 28.3275 74.6089 28.3275C74.6089 28.3275 74.8656 28.7239 75.0582 28.7239C75.2508 28.7239 76.4704 27.887 76.6843 27.7989C76.8983 27.7108 76.5774 28.2834 76.5132 28.6138C76.449 28.9221 76.342 29.0542 76.342 29.0542C76.342 29.0542 76.4276 30.3095 76.5132 30.3976C76.5988 30.4857 75.8071 29.781 75.6145 29.7369C75.422 29.6929 75.2936 29.4066 75.0582 29.4727C74.8228 29.5608 74.181 30.0453 73.5177 30.0893C72.8544 30.1333 73.3679 30.2435 73.3679 30.2435L72.8972 30.4417C72.8972 30.4417 72.0841 30.2655 71.8702 30.2214C71.6562 30.1774 70.8645 30.0893 70.6934 29.8911C70.5222 29.6929 70.3724 29.4947 70.244 29.4947C70.1157 29.4947 70.0729 29.2965 70.2013 29.1203" fill="var(--fill-0, white)"/>
<path id="Vector_23" d="M6.9752 67.4182C5.13511 67.4182 3.44481 66.8897 1.94706 65.1278C0.492113 63.4101 0 61.45 0 59.556C0 54.9532 3.01688 51.6498 6.9966 51.6498C10.9763 51.6498 14.0146 54.4027 13.9718 59.534C13.9504 63.8285 11.4256 67.4182 6.9538 67.4182M7.01799 54.2044C4.51462 54.2044 2.84571 56.2966 2.84571 59.4239C2.84571 62.5512 4.6644 64.8195 7.08218 64.8195C9.49996 64.8195 11.2331 63.4541 11.2973 59.8423C11.3614 56.9133 9.8851 54.2044 7.01799 54.2044Z" fill="var(--fill-0, white)"/>
<path id="Vector_24" d="M23.2149 60.1727C23.0224 59.4679 22.3163 58.3668 20.8827 58.3668C19.4492 58.3668 18.3152 59.534 18.3152 61.6702C18.3152 63.8065 19.278 64.9957 20.9255 64.9957C22.5731 64.9957 23.0866 63.7624 23.4075 62.9035L25.5471 64.0487C24.7341 66.3391 22.7014 67.3742 20.9041 67.3742C18.037 67.3742 15.769 65.1058 15.769 61.7363C15.769 58.3668 18.037 56.0984 20.9683 56.0984C23.8996 56.0984 24.9053 57.8823 25.4402 59.1156L23.2363 60.1727H23.2149Z" fill="var(--fill-0, white)"/>
<path id="Vector_25" d="M37.2724 64.6431C35.9887 66.405 34.3411 67.3519 32.2229 67.3519C30.1047 67.3519 26.9166 65.5901 26.9166 61.67C26.9166 57.7499 29.1418 56.0762 32.0517 56.0762C34.9616 56.0762 35.9245 57.7499 36.117 58.0803C36.9729 59.3136 37.1441 61.1635 37.1655 62.2206H29.527C29.8265 63.8943 30.8322 64.8633 32.4583 64.8633C34.0844 64.8633 34.8333 63.8503 35.1328 63.3878L37.251 64.6431H37.2724ZM34.4695 60.3486C34.2342 58.6969 33.2499 58.1243 32.1587 58.1243C31.0675 58.1243 29.9335 58.9171 29.634 60.3486H34.4695Z" fill="var(--fill-0, white)"/>
<path id="Vector_26" d="M39.1553 59.534C39.1981 59.0055 39.2409 58.565 39.5618 57.9484C40.546 56.0984 43.0066 56.0984 43.6699 56.0984C44.6541 56.0984 45.8523 56.2306 46.7724 56.7811C47.992 57.5519 48.0134 58.543 48.0134 59.6882V65.3261C48.0134 66.1409 48.0134 66.4052 48.4627 67.0439H45.5314C45.51 66.8016 45.4672 66.3611 45.4672 66.207C44.9323 66.6695 43.8411 67.2861 42.4075 67.2861C40.0753 67.2861 38.6632 65.7885 38.6632 63.9606C38.6632 62.1327 38.7915 62.9476 38.9841 62.5071C39.733 60.9655 41.3163 60.6352 42.3005 60.437C44.4402 59.9965 44.5899 59.9525 45.51 59.6441C45.51 59.1156 45.4672 58.0365 43.7555 58.0365C42.0438 58.0365 42.1722 58.3668 41.9154 58.7192C41.6586 59.0495 41.6586 59.3578 41.6586 59.6441L39.1125 59.49L39.1553 59.534ZM45.5314 61.7363C45.0393 62.0006 44.483 62.1768 43.3704 62.375C42.4717 62.5071 41.2949 62.7053 41.2949 63.8505C41.2949 64.9957 41.9796 65.1058 42.9638 65.1058C43.9481 65.1058 45.1035 64.5112 45.3816 63.8725C45.5314 63.5422 45.5314 63.2339 45.5314 62.9035V61.7363Z" fill="var(--fill-0, white)"/>
<path id="Vector_27" d="M50.5382 56.3848H53.0415V57.6401C53.1699 57.4419 53.4053 57.1115 53.8546 56.8032C54.4751 56.3407 55.4165 56.0544 56.2296 56.0544C57.4064 56.0544 58.412 56.605 58.9255 57.3317C59.5674 58.2127 59.5674 59.3799 59.5674 60.7453V66.9998H57.1069V61.5822C57.1069 60.7894 57.1068 60.2608 57.0213 59.9745C56.7859 59.0495 56.144 58.543 55.331 58.543C54.5179 58.543 53.7904 59.0275 53.4267 59.7323C53.0415 60.5251 53.0415 61.6042 53.0415 62.397V67.0219H50.5382V56.3848Z" fill="var(--fill-0, white)"/>
<path id="Vector_28" d="M37.2724 86.1598C37.0799 86.6443 36.7375 87.5252 36.01 88.4062C34.983 89.6394 33.3355 90.7186 30.9605 90.7186C27.0878 90.7186 24.1351 87.8115 24.1351 82.7903C24.1351 77.7691 27.3445 74.9501 31.0675 74.9501C34.7904 74.9501 36.6947 78.5399 37.0157 79.597L34.2769 80.3458C34.2341 80.0595 34.1058 79.4208 33.742 78.8482C33.4211 78.3857 32.6294 77.5268 31.1103 77.5268C28.7353 77.5268 27.0878 79.5529 27.0878 82.7683C27.0878 85.9836 28.8423 88.0758 31.1317 88.0758C33.4211 88.0758 33.3141 87.3931 33.9132 86.6003C34.3839 85.9396 34.5765 85.389 34.6835 85.0587L37.251 86.1598H37.2724Z" fill="var(--fill-0, white)"/>
<path id="Vector_29" d="M43.8839 90.6745C40.6531 90.6745 38.5134 88.252 38.5134 84.9926C38.5134 81.7332 40.6959 79.3988 43.7769 79.3988C46.858 79.3988 49.1046 81.4689 49.126 84.9926C49.126 88.3181 46.9864 90.6745 43.8839 90.6745ZM43.7769 81.6892C42.2364 81.6892 41.1024 82.9665 41.1024 84.9265C41.1024 86.8866 42.4076 88.3401 43.8839 88.3401C45.3603 88.3401 46.5798 86.7324 46.5371 84.9486C46.4943 83.1867 45.51 81.6892 43.7555 81.6892" fill="var(--fill-0, white)"/>
<path id="Vector_30" d="M51.0303 79.7071H53.5336V80.9624C53.662 80.7642 53.8974 80.4338 54.3467 80.1255C54.9672 79.663 55.9086 79.3767 56.7217 79.3767C57.8985 79.3767 58.9041 79.9273 59.4176 80.654C60.0595 81.557 60.0595 82.7022 60.0595 84.0676V90.3221H57.5989V84.9045C57.5989 84.1117 57.5989 83.5831 57.5134 83.2968C57.278 82.3718 56.6361 81.8653 55.823 81.8653C55.01 81.8653 54.2825 82.3498 53.9188 83.0546C53.5336 83.8474 53.5336 84.9265 53.5336 85.7193V90.3442H51.0303V79.7071Z" fill="var(--fill-0, white)"/>
<path id="Vector_31" d="M63.547 87.1949C64.1675 87.9877 65.0875 88.5603 66.5211 88.5603C67.9546 88.5603 68.5751 87.8336 68.5751 87.305C68.5751 86.7764 67.8263 86.4461 67.5053 86.4021C67.163 86.314 65.4513 86.0057 65.0875 85.8955C62.6269 85.3009 62.1776 83.8254 62.1776 82.8784C62.1776 81.0725 63.761 79.4208 66.6067 79.4208C69.4524 79.4208 69.3026 79.9273 70.0087 80.4338C70.5222 80.7642 70.8645 81.1386 71.0571 81.4028L69.3026 83.0766C69.0031 82.504 68.3184 81.4689 66.4997 81.4689C64.681 81.4689 64.788 81.9975 64.788 82.548C64.788 83.0986 65.5582 83.5171 66.8848 83.7593C69.0244 84.1557 69.6235 84.2658 70.2868 84.7944C70.9287 85.3009 71.3353 86.1598 71.3353 87.0407C71.3353 88.6925 69.8803 90.6745 66.6923 90.6745C63.5042 90.6745 63.0335 90.0799 61.7283 88.7805L63.5684 87.1949H63.547Z" fill="var(--fill-0, white)"/>
<path id="Vector_32" d="M83.1676 87.9657C81.8838 89.7275 80.2363 90.6745 78.1181 90.6745C75.9998 90.6745 72.8118 88.9127 72.8118 84.9926C72.8118 81.0725 75.037 79.3988 77.9469 79.3988C80.8568 79.3988 81.8196 81.0725 82.0122 81.4029C82.868 82.6361 83.0392 84.4861 83.0606 85.5432H75.4221C75.7003 87.2169 76.7273 88.1859 78.3534 88.1859C79.9795 88.1859 80.7284 87.1729 81.028 86.7104L83.1462 87.9657H83.1676ZM80.3647 83.6712C80.1293 82.0195 79.1451 81.4469 78.0539 81.4469C76.9626 81.4469 75.8286 82.2397 75.5291 83.6712H80.3647Z" fill="var(--fill-0, white)"/>
<path id="Vector_33" d="M87.3398 79.7071V81.2267C87.6393 80.6761 88.324 79.4208 90.6562 79.4868V82.1076C90.1213 82.1296 89.1799 82.1516 88.431 82.7462C87.3826 83.5831 87.3612 84.6622 87.3612 86.4241V90.3662H84.9648V79.7291H87.3612L87.3398 79.7071Z" fill="var(--fill-0, white)"/>
<path id="Vector_34" d="M101.226 79.7071L97.8239 90.3442H95.1708L91.833 79.7071H94.3791L96.5401 87.0408L98.637 79.7071H101.226Z" fill="var(--fill-0, white)"/>
<path id="Vector_35" d="M102.574 82.8564C102.617 82.3278 102.659 81.8653 102.98 81.2707C103.965 79.4208 106.425 79.4208 107.089 79.4208C108.073 79.4208 109.271 79.5529 110.191 80.1035C111.411 80.8743 111.432 81.8653 111.432 83.0105V88.6484C111.432 89.4633 111.432 89.7275 111.881 90.3662H108.95C108.95 90.1019 108.886 89.6835 108.886 89.5293C108.351 89.9918 107.26 90.6084 105.826 90.6084C103.494 90.6084 102.082 89.1109 102.082 87.283C102.082 85.4551 102.21 86.2699 102.403 85.8295C103.152 84.2879 104.735 83.9575 105.741 83.7593C107.859 83.3188 108.03 83.2748 108.95 82.9665C108.95 82.4379 108.907 81.3588 107.196 81.3588C105.484 81.3588 105.612 81.6891 105.355 82.0415C105.077 82.3719 105.099 82.6802 105.099 82.9665L102.553 82.8123L102.574 82.8564ZM108.95 85.0587C108.458 85.3009 107.902 85.4991 106.789 85.6973C105.89 85.8295 104.714 86.0277 104.714 87.1729C104.714 88.3181 105.398 88.4282 106.382 88.4282C107.367 88.4282 108.522 87.8336 108.8 87.1949C108.95 86.8645 108.95 86.5562 108.95 86.2259V85.0587Z" fill="var(--fill-0, white)"/>
<path id="Vector_36" d="M113.636 79.7071H116.139V80.9624C116.268 80.7642 116.503 80.4338 116.952 80.1255C117.573 79.663 118.514 79.3767 119.327 79.3767C120.504 79.3767 121.51 79.9273 122.045 80.654C122.687 81.557 122.687 82.7022 122.687 84.0676V90.3221H120.226V84.9045C120.226 84.1117 120.226 83.5831 120.14 83.2968C119.905 82.3718 119.242 81.8653 118.45 81.8653C117.658 81.8653 116.91 82.3498 116.546 83.0546C116.161 83.8474 116.161 84.9265 116.161 85.7193V90.3442H113.657V79.7071H113.636Z" fill="var(--fill-0, white)"/>
<path id="Vector_37" d="M131.801 83.473C131.609 82.7683 130.903 81.6671 129.469 81.6671C128.036 81.6671 126.902 82.8343 126.902 84.9706C126.902 87.1068 127.864 88.296 129.512 88.296C131.159 88.296 131.673 87.0628 131.994 86.2039L134.133 87.3491C133.32 89.6394 131.288 90.6745 129.49 90.6745C126.623 90.6745 124.355 88.4062 124.355 85.0366C124.355 81.6671 126.623 79.3988 129.555 79.3988C132.486 79.3988 133.492 81.1826 134.027 82.4159L131.823 83.473H131.801Z" fill="var(--fill-0, white)"/>
<path id="Vector_38" d="M143.976 79.7071L141.344 88.9788L140.766 90.9828C140.06 93.2072 139.311 94 137.386 94C135.46 94 136.187 93.9119 135.888 93.8679V91.6435C136.123 91.6876 136.294 91.7096 136.551 91.7096C136.808 91.7096 137.279 91.7096 137.664 91.4233C137.942 91.2251 138.242 90.7626 138.242 90.5424L134.497 79.6851H137.172L139.461 87.6133L141.43 79.6851H143.976V79.7071Z" fill="var(--fill-0, white)"/>
<path id="Vector_39" d="M148.362 79.1124C147.1 79.1124 146.115 80.1475 146.115 81.4249C146.115 82.7022 147.121 83.7153 148.341 83.7153C149.56 83.7153 150.566 82.7022 150.566 81.4249C150.566 80.1696 149.624 79.1124 148.341 79.1124M148.362 84.0236C147.035 84.0236 145.837 82.9665 145.837 81.4028C145.837 79.8392 146.993 78.7821 148.362 78.7821C149.731 78.7821 150.93 79.9713 150.908 81.4249C150.908 82.8784 149.796 84.0236 148.362 84.0236Z" fill="var(--fill-0, white)"/>
<path id="Vector_40" d="M147.891 81.1165H148.341C148.555 81.1165 148.983 81.1165 148.983 80.6761C148.983 80.2356 148.94 80.3898 148.769 80.3017C148.662 80.2576 148.597 80.2576 148.234 80.2576H147.891V81.1165ZM148.319 79.8172C148.64 79.8172 148.854 79.8172 149.025 79.9053C149.346 80.0154 149.518 80.3237 149.518 80.632C149.518 80.9404 149.282 81.2707 148.897 81.3808C149.132 81.4909 149.261 81.601 149.325 82.0415C149.389 82.526 149.432 82.7022 149.56 82.9665H148.94C148.918 82.9224 148.876 82.8123 148.811 82.526C148.811 82.4599 148.747 82.1296 148.747 82.0415C148.662 81.601 148.448 81.557 148.063 81.557H147.87V82.9665H147.335V79.8392H148.319V79.8172Z" fill="var(--fill-0, white)"/>
</g>
</svg>
