<svg preserveAspectRatio="none" width="100%" height="100%" overflow="visible" style="display: block;" viewBox="0 0 104 90" fill="none" xmlns="http://www.w3.org/2000/svg">
<path id="Vector" d="M0 89.8998C0 89.8998 10.2189 85.0148 15.5214 69.2649C20.9138 53.2482 22.2212 47.281 23.2821 46.4954C25.9169 44.5455 34.8443 45.1622 35.0719 41.4869C35.1906 39.5815 30.0627 36.2293 28.5218 35.1847C27.8142 34.7054 28.0427 34.0591 28.0796 33.7547C28.2493 32.3701 28.8641 28.3331 30.6117 24.296C32.7674 19.3152 34.8543 8.77737 35.1487 3.23421C35.5529 -4.39517 51.5165 -1.6389 82.3986 46.27C98.5986 71.4015 103.729 81.0403 103.729 89.9663C85.236 89.9663 0 89.8998 0 89.8998Z" fill="var(--fill-0, #020B18)"/>
</svg>
